<svg xmlns="http://www.w3.org/2000/svg" xmlns:xlink="http://www.w3.org/1999/xlink" viewBox="0 0 758.78 569.6"><defs><style>.cls-1{opacity:0.17;}.cls-2{fill:#699;}.cls-3{fill:#7d90a1;}.cls-4{fill:#6053a3;}.cls-5{fill:#584351;}.cls-6{fill:#806282;}.cls-10,.cls-11,.cls-12,.cls-13,.cls-14,.cls-15,.cls-16,.cls-17,.cls-18,.cls-19,.cls-20,.cls-21,.cls-22,.cls-23,.cls-24,.cls-25,.cls-26,.cls-27,.cls-28,.cls-29,.cls-32,.cls-33,.cls-34,.cls-35,.cls-36,.cls-37,.cls-38,.cls-39,.cls-40,.cls-41,.cls-42,.cls-43,.cls-45,.cls-46,.cls-47,.cls-48,.cls-49,.cls-50,.cls-51,.cls-52,.cls-53,.cls-54,.cls-55,.cls-59,.cls-6,.cls-60,.cls-61,.cls-62,.cls-63,.cls-64,.cls-65,.cls-66,.cls-67,.cls-68,.cls-69,.cls-7,.cls-72,.cls-73,.cls-76,.cls-77,.cls-78,.cls-79,.cls-8,.cls-9{stroke:#231f20;stroke-miterlimit:10;}.cls-10,.cls-12,.cls-13,.cls-14,.cls-22,.cls-23,.cls-24,.cls-40,.cls-41,.cls-43,.cls-45,.cls-46,.cls-6,.cls-7,.cls-73,.cls-78{stroke-width:0.29px;}.cls-16,.cls-55,.cls-7{fill:#a7a9ac;}.cls-13,.cls-8,.cls-9{fill:#cb9831;}.cls-25,.cls-32,.cls-34,.cls-35,.cls-37,.cls-38,.cls-39,.cls-8{stroke-width:0.31px;}.cls-15,.cls-18,.cls-19,.cls-26,.cls-27,.cls-29,.cls-33,.cls-36,.cls-42,.cls-47,.cls-48,.cls-51,.cls-52,.cls-53,.cls-55,.cls-59,.cls-68,.cls-9{stroke-width:0.25px;}.cls-10,.cls-25,.cls-29,.cls-72{fill:none;}.cls-11,.cls-31,.cls-36{fill:#a47c25;}.cls-11,.cls-16,.cls-54{stroke-width:0.3px;}.cls-12,.cls-26{fill:#9a7422;}.cls-14{fill:#686047;}.cls-15,.cls-34{fill:#808285;}.cls-17,.cls-21,.cls-28,.cls-69,.cls-77{stroke-width:0.34px;}.cls-17{fill:url(#radial-gradient);}.cls-18{fill:url(#radial-gradient-2);}.cls-19{fill:url(#radial-gradient-3);}.cls-20,.cls-60,.cls-61,.cls-62,.cls-63,.cls-64,.cls-66,.cls-67{stroke-width:0.49px;}.cls-20{fill:url(#radial-gradient-4);}.cls-21{fill:url(#linear-gradient);}.cls-22{fill:url(#radial-gradient-5);}.cls-23{fill:url(#radial-gradient-6);}.cls-24,.cls-48{fill:#58595b;}.cls-27{fill:#a6ce39;}.cls-28,.cls-40,.cls-44{fill:#6d6e71;}.cls-30{fill:#7c5e16;}.cls-32,.cls-33,.cls-50{fill:#414042;}.cls-35{fill:#cdcfd0;}.cls-37{fill:#616264;}.cls-38{fill:#737577;}.cls-39{fill:#8a8c8e;}.cls-41,.cls-59,.cls-75{fill:#231f20;}.cls-42{fill:#82c341;}.cls-43{fill:#8dc63f;}.cls-45{fill:#624a64;}.cls-46{fill:#7f7b69;}.cls-47{fill:#80717a;}.cls-49,.cls-50,.cls-65,.cls-76{stroke-width:0.54px;}.cls-49{fill:url(#radial-gradient-7);}.cls-51{fill:url(#radial-gradient-8);}.cls-52{fill:url(#radial-gradient-9);}.cls-53{fill:url(#radial-gradient-10);}.cls-54,.cls-76{fill:#939598;}.cls-56{fill:#6d536f;}.cls-57{fill:#9a6582;}.cls-58{fill:#d4c62c;}.cls-60{fill:url(#linear-gradient-2);}.cls-61{fill:url(#radial-gradient-11);}.cls-62{fill:url(#radial-gradient-12);}.cls-63{fill:url(#radial-gradient-13);}.cls-64{fill:url(#radial-gradient-14);}.cls-65{fill:url(#radial-gradient-15);}.cls-66{fill:url(#radial-gradient-16);}.cls-67{fill:url(#radial-gradient-17);}.cls-68{fill:url(#radial-gradient-18);}.cls-69{fill:url(#linear-gradient-3);}.cls-70{fill:#5e5d4e;}.cls-71{fill:#958783;}.cls-73{fill:#4d4833;}.cls-74{fill:#59435b;}.cls-77{fill:url(#linear-gradient-4);}.cls-78,.cls-79{fill:#fff;}.cls-79{stroke-width:0.29px;}</style><radialGradient id="radial-gradient" cx="356.92" cy="457.16" r="6.09" gradientUnits="userSpaceOnUse"><stop offset="0" stop-color="#fff"/><stop offset="1"/></radialGradient><radialGradient id="radial-gradient-2" cx="302.32" cy="502.14" r="5.62" xlink:href="#radial-gradient"/><radialGradient id="radial-gradient-3" cx="336.32" cy="520.28" r="4.82" xlink:href="#radial-gradient"/><radialGradient id="radial-gradient-4" cx="445.01" cy="486.22" r="19.11" gradientUnits="userSpaceOnUse"><stop offset="0" stop-color="#fff"/><stop offset="0.7"/></radialGradient><linearGradient id="linear-gradient" x1="448.86" y1="326.78" x2="442.2" y2="340.77" gradientUnits="userSpaceOnUse"><stop offset="0" stop-color="#fff"/><stop offset="0.57" stop-color="#86888b"/><stop offset="1"/></linearGradient><radialGradient id="radial-gradient-5" cx="152" cy="476.99" fx="140.70986210621564" r="11.36" xlink:href="#radial-gradient"/><radialGradient id="radial-gradient-6" cx="154.87" cy="561.6" fx="142.47381498185518" fy="555.2571423401306" r="13.92" gradientUnits="userSpaceOnUse"><stop offset="0" stop-color="#fff"/><stop offset="0.09" stop-color="#f8f8f8"/><stop offset="0.22" stop-color="#e6e6e6"/><stop offset="0.37" stop-color="#c7c7c7"/><stop offset="0.53" stop-color="#9c9c9c"/><stop offset="0.72" stop-color="#656565"/><stop offset="0.91" stop-color="#232323"/><stop offset="1"/></radialGradient><radialGradient id="radial-gradient-7" cx="486.28" cy="572.32" r="11.52" xlink:href="#radial-gradient-4"/><radialGradient id="radial-gradient-8" cx="321.77" cy="471.97" r="4.85" gradientUnits="userSpaceOnUse"><stop offset="0.21" stop-color="#fff"/><stop offset="1"/></radialGradient><radialGradient id="radial-gradient-9" cx="329.94" cy="484.99" r="5.53" xlink:href="#radial-gradient"/><radialGradient id="radial-gradient-10" cx="341.53" cy="494.55" r="5.21" xlink:href="#radial-gradient"/><linearGradient id="linear-gradient-2" x1="454.25" y1="376.5" x2="448.72" y2="388.38" xlink:href="#radial-gradient"/><radialGradient id="radial-gradient-11" cx="505.64" cy="418.81" r="8.73" gradientUnits="userSpaceOnUse"><stop offset="0" stop-color="#fff"/><stop offset="0.89"/></radialGradient><radialGradient id="radial-gradient-12" cx="544.33" cy="429.92" r="11.12" xlink:href="#radial-gradient-11"/><radialGradient id="radial-gradient-13" cx="540.24" cy="446" r="10.35" xlink:href="#radial-gradient-11"/><radialGradient id="radial-gradient-14" cx="524.16" cy="452.51" r="8.61" xlink:href="#radial-gradient-11"/><radialGradient id="radial-gradient-15" cx="535.52" cy="477.53" r="9.07" xlink:href="#radial-gradient-11"/><radialGradient id="radial-gradient-16" cx="558.88" cy="465.79" fy="472.2334682904221" r="6.67" xlink:href="#radial-gradient-11"/><radialGradient id="radial-gradient-17" cx="570.24" cy="428.77" r="9.19" xlink:href="#radial-gradient-11"/><radialGradient id="radial-gradient-18" cx="293.13" cy="470.1" r="9.8" xlink:href="#radial-gradient"/><linearGradient id="linear-gradient-3" x1="351.31" y1="382.62" x2="344.91" y2="396.82" xlink:href="#radial-gradient"/><linearGradient id="linear-gradient-4" x1="353.14" y1="320.53" x2="344.87" y2="334.97" xlink:href="#radial-gradient"/></defs><g id="Layer_3" data-name="Layer 3"><g class="cls-1"><path class="cls-2" d="M34.49,31.32c-7,18.75-12.34,43.88,4,55.45,11.22,7.94,26.79,4.43,39.9,8.54,24.4,7.66,32.54,37.46,36.86,62.67,1.3,7.57,2.57,15.54,0,22.76-1.91,5.32-5.76,9.73-10,13.54a78.8,78.8,0,0,1-64.65,19.17C25,291.57,9.38,372.22,25.36,450.26c4.55,22.22,11.81,44.27,24.84,62.83s32.39,33.43,54.69,37.56c4.88.9,10.24,1.21,14.48-1.36C126.54,545,127.16,535,127,526.6l-1.51-61.55c0-2.16,0-4.56,1.48-6.13s4-1.72,6.21-1.73c19.16-.08,39.33.1,56,9.62s27.54,31.86,18,48.45c-7,12.2-23.85,21.12-21,34.92,2.59,12.58,19.08,15.37,31.93,15.39l288.7.31c30.45,0,61.08,0,91.05-5.29,8.25-1.47,17.42-4.05,21.41-11.42,2.65-4.9,2.33-10.91.81-16.26-4.42-15.57-17.91-27.08-32.45-34.19S557,488,541.86,482.19a172.46,172.46,0,0,1-72.41-52.6c-10.08-12.5-18.61-27.08-19.91-43.09s6.22-33.52,20.88-40.09c3.56-1.6,7.64-2.51,11.37-1.36,4.6,1.41,7.71,5.59,10.42,9.56a486.15,486.15,0,0,1,29.31,48.68A103.58,103.58,0,0,0,532,324.09c-4.19-15.18-11.84-31.58-5-45.79,5.17-10.82,17.9-16.63,29.88-16.14s23.17,6.29,32.66,13.62c39.54,30.5,55.15,87,99,110.82,7.47,4.06,16.63,7,24.34,3.39,6.57-3.08,10.26-10.05,13.4-16.59a839.34,839.34,0,0,0,36.83-89.61c2.92-8.49,5.71-17.81,2.64-26.25-5.42-14.87-24.45-18-39.07-24-29.89-12.4-47.68-45.4-49.13-77.73S688.45,92,704.82,64c4.95-8.45,10.16-19.66,3.88-27.17-4.24-5-11.7-5.56-18.3-5.59a864.65,864.65,0,0,0-182,18.36c-3.42.72-7.09,1.6-9.39,4.23-2,2.35-2.59,5.64-2.74,8.75-1.09,22.46,12.46,48.73-2.83,65.21-5.38,5.79-13.21,8.56-20.86,10.58-23,6.06-48.92,6.72-69.23-5.7s-31.67-40.92-19.45-61.35c4.73-7.92,12.79-16.52,8.81-24.84-2.09-4.38-6.93-6.66-11.52-8.24-15.09-5.22-31.21-6.54-47.14-7.58A1635.67,1635.67,0,0,0,78.51,34c-10.82,1-22.24,2-32.06-2.65-3.85-1.81-7.66-4.52-11.88-4.05S27.21,34,30.88,36.19" transform="translate(-10.76 -24.7)"/><path class="cls-3" d="M32.08,30.65c-5.42,14.56-10.66,33-3.63,47.92C32,86.15,39,91.18,47,93.29c9.53,2.51,19.6,1.44,29.12,4,16.83,4.46,25.82,20.48,30.82,36a182.25,182.25,0,0,1,5.87,24.95c1,5.87,2.15,12.07,1.09,18-1,5.62-4.18,10.24-8.15,14.22C89.19,207,64.29,214.59,41.29,211a2.55,2.55,0,0,0-3.08,1.74C27.6,265.91,17,319.55,16.21,373.91c-.39,26.66,1.68,53.43,7.27,79.53,4.94,23,13,46,27.49,64.89,13,16.88,31.47,30.53,52.69,34.62,9.54,1.84,19.49.43,23.58-9.53,1.78-4.32,2.2-9.11,2.24-13.74.07-6.64-.28-13.3-.44-19.93L128,468c-.09-3.7-.94-8,4-8.28,2.87-.16,5.79,0,8.66,0,6.1,0,12.2.22,18.27.84,21.46,2.19,44.66,12.56,48.76,36.12,1.81,10.42-2.72,18.6-9.57,26.05-5.54,6-12.77,12.29-14.51,20.69-4.08,19.81,20,24.56,34.36,24.67,56.26.4,112.53.12,168.78.18l84.39.09c27.54,0,55.15.61,82.66-.66a360.64,360.64,0,0,0,39-3.74c9.54-1.49,21.08-3.14,27.23-11.51,6.27-8.53,3.39-20.25-1.16-28.87-4.75-9-12.45-16.24-20.89-21.78-20.48-13.44-45.69-16.75-67.58-27.22a171,171,0,0,1-54.88-41.65c-14.56-16.67-28.52-39.14-21.87-62.13,2.87-9.9,9.75-19.59,19.9-22.91,7.25-2.37,11.92,1.45,15.9,7.09,3.68,5.21,7.14,10.59,10.54,16q10.37,16.43,19.4,33.62a2.52,2.52,0,0,0,4.32,0A106.7,106.7,0,0,0,535,325.83c-3.42-13.72-11.59-29-7.07-43.37,4-12.76,18.16-18.79,30.7-17.68,13.84,1.22,26.15,9.62,36.14,18.73a175.65,175.65,0,0,1,23.05,26.41c13.74,18.76,25.51,39.1,41.3,56.29A112.33,112.33,0,0,0,685,387.49c10.42,6.06,24,10.32,34,1.29,4.61-4.12,7.36-9.91,10-15.39q5-10.45,9.71-21,9.4-21.17,17.66-42.8,4.25-11.16,8.18-22.44c2.44-7,5.07-14.27,5-21.78-.12-11.51-7.48-19.72-17.34-24.62-10.33-5.14-21.86-7.34-31.91-13.08a74.92,74.92,0,0,1-25.61-24.95c-14.3-22.44-17.48-49.58-12.53-75.41a175,175,0,0,1,14.3-42.19c3.21-6.75,6.79-13.3,10.53-19.78,3.07-5.33,6-11,6.88-17.18.7-5.16-.54-10.48-4.46-14.12s-9.49-4.77-14.76-5.1c-15.7-1-31.81,0-47.51.73a869.16,869.16,0,0,0-95.39,9.56c-15.48,2.42-31.42,4.62-46.58,8.64-5.83,1.54-9.94,5.07-11,11.19-1,5.94-.32,12.19.45,18.11,1.61,12.17,5.58,25.26,2.87,37.53C494.29,129.1,480.75,134,467.8,137c-25.2,5.83-56.41,4.87-74.54-16.25-7.46-8.69-12.2-20.2-11.88-31.73a34.11,34.11,0,0,1,4.69-16.41c3.21-5.45,7.54-10.39,9.43-16.53,4.23-13.72-9.53-19.35-20.16-22.23-14.86-4-30.36-5-45.66-5.94q-48.87-3.08-97.88-3.21t-97.89,2.65Q109.1,28.78,84.33,31c-7.38.65-14.8,1.59-22.22,1.3a41.83,41.83,0,0,1-10.78-1.71c-3.52-1.1-6.58-3.08-10-4.48-4.48-1.86-9.58-2-12.76,2.16-2.55,3.35-2.47,7.57,1,10.13,2.59,1.91,5.09-2.43,2.52-4.32-1-.75.15-2.55.73-3.15,1.21-1.26,2.77-1.31,4.4-1,3.34.71,6.29,2.9,9.4,4.22,6.31,2.66,13.23,3.29,20,3.14,15.35-.34,30.75-2.5,46.06-3.57q47.76-3.36,95.66-3.9t95.73,1.7c15.44.73,30.95,1.4,46.32,3a150.37,150.37,0,0,1,22.89,4c5.77,1.54,15,3.39,17.39,9.72s-3.2,13-6.42,17.86c-3.12,4.7-5.73,9.52-7,15.07-2.27,10.22-.4,20.89,4,30.28,10.55,22.54,34.12,33,58,33.65a117.85,117.85,0,0,0,38.47-5.58C489.2,135.89,499,129,502.08,117c2.88-11.18.17-23.11-1.61-34.24a101.93,101.93,0,0,1-1.73-19c.11-3.67.57-7.51,3.94-9.62,2.81-1.76,6.74-2.12,9.92-2.77a858,858,0,0,1,94.22-14q23.35-2.13,46.79-3,11.89-.44,23.81-.56c6.81-.06,14.06-.69,20.8.49S709.79,39.85,709,47.13c-.74,6.52-4.43,12.35-7.63,17.92a230.1,230.1,0,0,0-17.8,38.19c-8.71,24.77-11.95,52.05-4.29,77.51,6.46,21.48,20.26,41.53,40.36,52.22,9.87,5.24,21,7.35,30.93,12.49,4.67,2.43,9.07,5.62,11.63,10.34,3.77,6.93,2.33,14.95.17,22.15-4.34,14.47-10.05,28.68-15.65,42.7q-8.6,21.56-18.41,42.6c-5.55,11.9-11.3,28.66-27.64,25.39-11.43-2.29-22.09-10.67-30.45-18.42C637,339.46,621.9,290.6,581.44,267.35c-10.77-6.19-23.55-9.7-35.84-6.43-11.12,2.95-20.54,11.1-23.08,22.59-2.95,13.36,2.87,26.79,6.53,39.39A100.85,100.85,0,0,1,519.36,402h4.32q-9.21-17.49-19.77-34.2c-3.39-5.35-6.82-10.7-10.5-15.86-2.72-3.81-5.88-7.55-10.44-9.15-9.56-3.34-20.32,3.93-26.12,11.05A46.05,46.05,0,0,0,447,379.8c-1.53,22.48,12.57,43,27,58.9a175.07,175.07,0,0,0,53.88,40.18c21.72,10.39,46.75,13.76,67.12,26.91,9.08,5.86,17.33,13.94,21.35,24.15,2.1,5.33,3.46,11.74,1,17.18-2.34,5.23-7.73,7.85-13,9.4-12.06,3.56-25.26,4.45-37.74,5.39-13.53,1-27.1,1.34-40.66,1.44-27.65.19-55.3,0-83,0l-167.3-.18-42.19,0c-10.73,0-22.12,1-32.54-2.17-8.29-2.53-15.35-9.35-11.84-18.63,3.24-8.55,11.78-14.45,17.2-21.55,11.82-15.48,6.41-35.92-6.62-48.88-16.08-16-40.89-17.15-62.21-17.17-4.5,0-10.71-.76-13.39,3.83a11.79,11.79,0,0,0-1.19,6c0,3.6.17,7.21.26,10.8l1,41c.22,8.84,3.16,25.88-6.59,31-5.29,2.81-12.22,1-17.66-.44a73,73,0,0,1-15.33-6.1C40,517.08,27,461.39,22.71,415.05c-5-54.32,2.77-108.84,12.75-162.16,2.42-12.95,5-25.87,7.57-38.78L40,215.86A82,82,0,0,0,98.18,203c8.08-5.48,16.54-12.67,19.66-22.24,3.25-9.94.39-21.28-1.62-31.22-3.31-16.36-8.39-34.16-20.46-46.36A40.84,40.84,0,0,0,74,91.68c-10-1.84-21-.5-30.38-4.82C22.75,77.24,30.77,48.46,36.9,32c1.12-3-3.71-4.32-4.82-1.33Z" transform="translate(-10.76 -24.7)"/></g><g class="cls-1"><path class="cls-2" d="M34.07,107.52l.93,10a4.4,4.4,0,0,0,.64,2.28,4.06,4.06,0,0,0,2.1,1.27,20.67,20.67,0,0,0,14.8-.86c4.12-1.89,8-5.22,12.48-4.79,5.93.56,9.09,7.09,11.12,12.68a5.37,5.37,0,0,1,.4,3.63c-1.14,2.93-5.78,1.7-8.36,3.5s-2.09,5.59-.69,8.29,3.54,5.16,3.8,8.18c.43,5.1-4.55,8.9-9.18,11.06a64.55,64.55,0,0,1-17.71,5.32,18.72,18.72,0,0,1-8.59-.27c-2.74-.91-5.2-3.19-5.54-6.06-.43-3.66,2.54-7.29,1.45-10.81-1.24-4-6.39-4.71-10.17-6.48a14.47,14.47,0,0,1-3.92-23.5,6.24,6.24,0,0,1,2.53-1.63c3-.83,6.42,1.88,9,.21,3.52-2.27.08-8.78,3.18-11.58" transform="translate(-10.76 -24.7)"/><path class="cls-3" d="M31.57,107.52l.64,6.89c.2,2.08.07,4.61,1.16,6.46s3.37,2.58,5.38,3a23.13,23.13,0,0,0,6.26.58,26.39,26.39,0,0,0,11.85-3.76c2.8-1.58,6.09-3.73,9.41-2.52,2.57.94,4.28,3.61,5.52,6a38.49,38.49,0,0,1,1.88,4.38,5.49,5.49,0,0,1,.58,2.08c0,.32,0,.14-.22.34.13-.15-.12.05-.13.05a28.7,28.7,0,0,1-4.22.86,7.49,7.49,0,0,0-4.16,2.38c-2.42,2.94-1.83,7.12-.26,10.31,1.38,2.82,4.34,5.74,3.33,9.11-.87,3-4,5-6.61,6.3a54.58,54.58,0,0,1-11.88,4.35c-3.88,1-8.53,2.21-12.53,1.31a6.87,6.87,0,0,1-3.94-2.24,4.46,4.46,0,0,1-.69-4.06c.87-3.65,2.54-7.23.45-10.82-1.7-2.92-5-4.17-8-5.28s-5.6-2.4-7.46-5.08a11.83,11.83,0,0,1-1.9-9.41A12.68,12.68,0,0,1,18.26,124c.79-1,1.87-2.29,3.25-2.3,1.61,0,3.22.7,4.83.87a6.23,6.23,0,0,0,5.11-1.65c2.32-2.29,1.88-5.64,1.95-8.6a8.77,8.77,0,0,1,0-.88,1.76,1.76,0,0,1,.09-.59c0-.12.27-.77.16-.54a1.24,1.24,0,0,1,.42-.56c2.3-2.25-1.24-5.78-3.54-3.53-2.52,2.46-2.08,5.9-2.16,9.1a4.76,4.76,0,0,1-.2,1.53c-.07.28,0,.15-.27.56.11-.15-.12.11-.33.17-1.11.33-2.83-.42-4.06-.64a8,8,0,0,0-6,.91,14.8,14.8,0,0,0-4.25,4.59,17.39,17.39,0,0,0-2.28,12,16.92,16.92,0,0,0,5.55,9.73c2.78,2.39,6,3.28,9.33,4.7A7.18,7.18,0,0,1,29,151c.79,1.21.36,2.85-.06,4.28a19.16,19.16,0,0,0-1.21,5.92,9.1,9.1,0,0,0,2.28,5.7c2.85,3.36,7.45,4.3,11.66,4A58.44,58.44,0,0,0,55.44,168c7-2.26,17.26-6.11,18.29-14.62.53-4.38-2.26-7.52-4.08-11.18a6.31,6.31,0,0,1-.7-3.83c.26-1.21,1.09-1.46,2.35-1.72,3.2-.68,7-1,7.79-4.9.44-2.12-.44-4.19-1.21-6.13a39.22,39.22,0,0,0-2.37-5c-1.8-3.12-4.3-5.92-7.77-7.16-4-1.44-8.07,0-11.62,2S49.2,119.3,45,119.5a18.24,18.24,0,0,1-6.19-.74,3.46,3.46,0,0,1-1.14-.44s-.13-.1,0,0-.07-.23-.1-.38c-.21-1.07-.22-2.22-.33-3.31l-.66-7.13a2.57,2.57,0,0,0-2.5-2.5,2.51,2.51,0,0,0-2.5,2.5Z" transform="translate(-10.76 -24.7)"/></g><g class="cls-1"><path class="cls-4" d="M760.82,444.53c.71-5-2.73-10.59-4.29-15.44s-6.07-9.15-11.14-8.7c-2.44.22-4.65,1.47-6.82,2.6a90.93,90.93,0,0,1-53.19,9.56c-9.13-1.16-18.59-4-24.74-10.88-3.71-4.14-5.91-9.39-8-14.53l-15.1-36.43c-2.1-5.06-4.53-10.49-9.34-13.12a21.52,21.52,0,0,0-8.87-2.06,90.71,90.71,0,0,0-30.5,3.1c-7.17,2-14.4,5.12-19,10.94-3.32,4.17-5,9.36-6.72,14.42-1.95,5.76-4,11.79-3.07,17.81,1.28,8.22,8,14.62,15.25,18.64s15.41,6.28,22.8,10.1c14.82,7.66,25.9,21.25,33.45,36.12s11.92,31.12,16.23,47.24Q652,530,656.31,546.08c3.76,14,9.49,30.19,23.39,34.42,9.94,3,21.1-1.79,27.74-9.79s9.35-18.59,10.11-29-.27-20.77-.18-31.17c0-5.06.38-10.25,2.5-14.85,5.64-12.26,21.25-15.88,31-25.2,10.83-10.34,13.15-28.45,5.27-41.19" transform="translate(-10.76 -24.7)"/><path class="cls-5" d="M763.32,444.53a19,19,0,0,0-1.53-8.85c-1-2.65-2.08-5.27-3.08-7.92-1.94-5.16-6.52-9.68-12.27-9.89-3.15-.12-6,1.34-8.75,2.76a85.42,85.42,0,0,1-8.64,4,91.6,91.6,0,0,1-18.1,5,87.68,87.68,0,0,1-18.52,1.06,65,65,0,0,1-17.12-2.82,28.84,28.84,0,0,1-13.46-8.57c-3.9-4.66-6-10.7-8.28-16.24l-8.12-19.6c-2.55-6.15-4.84-12.5-7.79-18.47-2.63-5.31-6.55-9.7-12.49-11.13a46.86,46.86,0,0,0-9.67-1,88.24,88.24,0,0,0-10.41.32,90.2,90.2,0,0,0-19.46,3.8c-5.52,1.76-10.92,4.26-15.22,8.23-4.67,4.31-7.08,10.18-9.1,16.07-2.14,6.24-4.68,12.88-4,19.6,1.26,12,11.62,19.77,21.89,24.33,5.93,2.63,12.12,4.66,17.88,7.68a63.77,63.77,0,0,1,13.59,9.69c18.3,17,26.25,41.4,32.65,64.83,3.65,13.37,7.14,26.79,10.78,40.17,2.6,9.58,5.9,19.57,12.54,27.18a27.08,27.08,0,0,0,12,8.06,25.76,25.76,0,0,0,16.23-.47c11.26-4,18.67-13.66,22.23-24.76,4.1-12.78,3.14-26.36,2.79-39.57-.17-6.38-.61-13.19,1.42-19.34,1.49-4.47,4.69-8.05,8.37-10.88,7.77-6,17.37-9.46,24.14-16.75a36.54,36.54,0,0,0,9.2-28.65,34.84,34.84,0,0,0-4.78-14.31c-1.67-2.74-6-.23-4.32,2.52,5,8.17,5.53,18.36,2.25,27.27a29.26,29.26,0,0,1-7.87,11.58A69.38,69.38,0,0,1,737,477.21c-8.33,4.94-17.06,10.25-20.37,19.92-2.1,6.15-1.85,13-1.71,19.39.15,6.77.54,13.53.37,20.29-.29,11.27-2.33,23.56-9.86,32.42-6.41,7.53-17.21,12.15-26.81,8.25-8.39-3.41-13.15-12.17-16.18-20.2-1.82-4.82-3.16-9.78-4.49-14.75l-5.34-19.93c-6.43-24-12.11-49.37-26.68-70-6.41-9.08-14.39-17.17-24-22.78-10.16-5.9-22.63-8-31.66-15.8-3.8-3.28-6.93-7.46-7.79-12.51-1.06-6.19,1.54-12.54,3.49-18.29,1.85-5.44,3.94-10.82,8.32-14.74,4-3.58,9.17-5.66,14.25-7.15a86.53,86.53,0,0,1,19-3.33,89.25,89.25,0,0,1,9.95-.07c2.87.13,5.92.27,8.62,1.4,4.64,1.95,6.94,7,8.78,11.37,2.69,6.36,5.29,12.75,7.93,19.13s5.18,12.52,7.79,18.78c2.33,5.61,4.82,11.29,9.15,15.69,8,8.12,20,10.54,31,11.26a92.89,92.89,0,0,0,36.38-4.9c2.86-1,5.66-2.12,8.41-3.36s5.29-3,8.09-3.92a6.91,6.91,0,0,1,6.48.8,10.92,10.92,0,0,1,4,5.25c.91,2.49,1.93,4.92,2.88,7.39a16.13,16.13,0,0,1,1.43,7.72,2.51,2.51,0,0,0,2.5,2.5,2.56,2.56,0,0,0,2.5-2.5Z" transform="translate(-10.76 -24.7)"/></g><g class="cls-1"><path class="cls-4" d="M753.55,61.54c-4.83-12.46-15.2-21.16-28.4-23.16-7.17-1.08-14.23,1.95-21.1,4.28a117.22,117.22,0,0,1-61.84,3.64c-11.46-2.44-22.52-6.6-34.05-8.68s-24-1.88-34.2,3.93c-16.05,9.18-21.75,32.64-11.69,48.15,8.54,13.17,26.17,20.84,28.8,36.31,2.11,12.45-6.69,23.76-13.85,34.17a167.34,167.34,0,0,0-16.17,29.46c-2.75,6.47-5.13,13.58-3.55,20.43,1.76,7.71,8.09,13.4,14.11,18.53,7.79,6.62,15.77,13.28,25.13,17.39s20.46,5.39,29.74,1.11c5.18-2.39,10.09-6.5,15.76-5.92,3.22.32,6.06,2.15,8.88,3.73,21.65,12.16,47.84,11.92,72.66,11.36,7.08-.16,14.94-.64,19.9-5.69,4.36-4.45,5.19-11.17,5.79-17.37,2-20.72,3.91-42.33-3.61-61.74-3.29-8.49-8.29-16.25-11.43-24.8s-4.25-18.52.23-26.45c4.81-8.51,14.93-12.86,20.06-21.18,5.43-8.79,4.19-20,2.77-30.21a11.48,11.48,0,0,0-1.66-5.3c-1.15-1.57-10.77-12.74-11.94-14.29-16.59-22,12.6,14.76,7.73,8.06" transform="translate(-10.76 -24.7)"/><path class="cls-5" d="M756,60.87C751.29,49,741.6,39.65,729,36.6A29,29,0,0,0,717.65,36,64.61,64.61,0,0,0,706,39.33a123.36,123.36,0,0,1-23.23,5.86,117.6,117.6,0,0,1-47.08-3c-15.16-4-30.49-9.72-46.43-7.91-7,.8-14,2.92-19.69,7.18A35.87,35.87,0,0,0,558.75,54.7c-5,10.48-5.51,23.15-.17,33.61,5.43,10.64,16.17,17,23.77,25.85,3.57,4.16,6.28,9.11,6.52,14.67.3,7-2.91,13.46-6.49,19.25-4,6.45-8.64,12.48-12.57,19a168.7,168.7,0,0,0-10.92,21.33c-3.12,7.34-5.86,15.52-3.51,23.5,2,6.82,7.14,12.1,12.35,16.67,11.23,9.83,23.62,20.39,38.79,23,7.53,1.31,15.23.68,22.12-2.75,3-1.51,5.88-3.54,9.12-4.6a10,10,0,0,1,4.56-.54,14.79,14.79,0,0,1,4.76,1.81c3.25,1.76,6.42,3.58,9.83,5a88.11,88.11,0,0,0,10.54,3.76,119.09,119.09,0,0,0,22,3.88c7.46.68,15,.83,22.46.78,7.09,0,14.39.2,21.41-.94,6.74-1.09,12.84-4.55,15.68-11S752,233,752.65,226c1.39-15.63,2.14-31.68-1.79-47-2-7.74-5.45-14.82-9-21.92-3.32-6.59-6.67-13.47-7.46-20.9-.72-6.78.64-13.35,5.25-18.53,4.25-4.78,9.75-8.24,14-13,4.9-5.48,7.14-12.22,7.51-19.49a68.23,68.23,0,0,0-.47-10.88c-.21-1.89-.47-3.77-.73-5.65a16.92,16.92,0,0,0-1.36-5.28,21.69,21.69,0,0,0-3.07-4.08q-2.21-2.62-4.43-5.24c-1.38-1.64-2.77-3.27-4.14-4.91a18.18,18.18,0,0,0-1.17-1.43c-.16-.17.31.41.27.35s-.23-.31-.34-.46l-.5-.66-1-1.29c-.85-1.13-1.69-2.26-2.51-3.41-.21-.29-.4-.59-.61-.88-.06-.08-.1-.19-.16-.26s0-.07-.05-.08c.41.13.16,2.05.23,1.85L740,44.28h0l-1.26.34A3.08,3.08,0,0,1,737.1,44c0,.05.1.09.13.14s.3.33.45.49c.48.55,1,1.1,1.41,1.66q2.05,2.44,4.06,4.92c2.31,2.81,4.49,5.85,7,8.47,1.52,1.57,4.51,1,4.51-1.53a3.44,3.44,0,0,0-.89-2.09,2.58,2.58,0,0,0-3.42-.9,2.52,2.52,0,0,0-.9,3.42c.14.19.26.4.41.58.48.57-.24-.67-.2-1L750.91,56h0l1.93-.25c.52.1,1.38,1.05.79.33-.2-.25-.42-.49-.63-.73-.69-.82-1.36-1.64-2-2.46-1.83-2.23-3.65-4.46-5.49-6.69-1.43-1.74-2.84-3.52-4.35-5.2-.93-1-2.21-1.84-3.64-1-1.69,1-1.38,2.81-.47,4.13,4.46,6.54,9.76,12.43,14.83,18.48.56.68,1.12,1.35,1.67,2l.24.3c.24.28-.21-.15-.12-.17.31-.07.86,1.71.93,2a39.72,39.72,0,0,1,.87,5.42c.24,2,.46,3.91.6,5.87.53,7.37.05,15.13-4.48,21.3-4,5.42-10,9-14.59,13.81a26.59,26.59,0,0,0-7.75,20.73c.35,8.27,3.48,15.92,7.09,23.25,3.73,7.58,7.63,14.94,9.74,23.18,4.15,16.23,2.8,33.29,1.24,49.78-.63,6.59-.76,14.83-6.18,19.52-5.09,4.4-13,4.11-19.25,4.24-15.85.34-32,.53-47.54-2.93a80.24,80.24,0,0,1-21.93-8.13c-3.48-1.95-7-4.09-11.12-4.13-3.91,0-7.51,1.72-10.85,3.57s-6.6,3.6-10.39,4.43a31.66,31.66,0,0,1-11.11.31c-8.08-1.14-15.42-4.86-22.07-9.44-3.37-2.32-6.57-4.88-9.72-7.5-2.94-2.45-5.9-4.9-8.68-7.55a34.33,34.33,0,0,1-6.77-8.37,18.9,18.9,0,0,1-2.06-11A42.88,42.88,0,0,1,563.15,191c1.62-3.87,3.42-7.67,5.34-11.4A194.2,194.2,0,0,1,581.75,158c4.41-6.35,8.93-13,11-20.48a26.88,26.88,0,0,0-2.31-20.5c-6.16-11.1-18.1-17.24-25.29-27.49-6.72-9.56-7-22.4-1.9-32.76A30.37,30.37,0,0,1,574.66,44c6.55-3.94,14.29-5.25,21.84-5.12,17.22.3,33.22,7.92,50,10.74a120.67,120.67,0,0,0,51.36-2.5c4.18-1.14,8.24-2.62,12.35-4s8.13-2.6,12.39-2.48c6.27.16,12.81,3,17.69,6.81A35.09,35.09,0,0,1,751.14,62.2,2.59,2.59,0,0,0,754.22,64,2.52,2.52,0,0,0,756,60.87Z" transform="translate(-10.76 -24.7)"/></g><g class="cls-1"><path class="cls-4" d="M21.12,159c10.92,3.64,23.12-1.78,31.23-10S65.6,130.3,71.67,120.52,85.42,101.16,96.2,97.1a15.27,15.27,0,0,1,8.75-1c5.44,1.29,8.68,6.66,12,11.14,16.75,22.41,47.62,29.46,75.54,27.83s55.07-10.23,83-12.28,58.79,4,76.52,25.61c6.66,8.13,11,20,5.68,29-3.18,5.42-9.1,8.58-14.93,10.92-30.48,12.24-64.77,9.3-96.9,16.09a7.14,7.14,0,0,0-3.68,1.56,6.54,6.54,0,0,0-1.57,3.48c-4.15,20.07,12.16,40.22,7.94,60.28-2.34,11.14-10.71,20.08-19.91,26.78-18.17,13.24-40.52,20-62.92,21.92a10.69,10.69,0,0,1-5.51-.52,10.53,10.53,0,0,1-3.94-4c-6-9-10.59-18.93-16.68-27.89s-14.1-17.2-24.4-20.56c-16-5.23-33,2.26-49.19,7-6.29,1.83-13.06,3.25-19.32,1.31a27.07,27.07,0,0,1-11.25-7.49c-14.56-15.19-16.64-40.81-4.7-58.15,2.14-3.11,4.72-6.07,5.66-9.73,2.64-10.25-8-18.35-15.52-25.81-2.22-2.21-4.37-4.93-4.28-8.07s3.73-6.08,6.37-4.39" transform="translate(-10.76 -24.7)"/><path class="cls-5" d="M20.46,161.4C28,163.81,36,162.4,43,158.93c7.37-3.68,13.11-9.61,17.89-16.21,9.25-12.78,15-28.8,27.89-38.62a30.24,30.24,0,0,1,10.37-5.32,9.76,9.76,0,0,1,9.8,2.39c2.68,2.53,4.62,5.73,6.87,8.61a59.19,59.19,0,0,0,7,7.57c10.78,9.73,24.61,15.48,38.75,18.23,34.48,6.71,68.28-4.66,102.26-9.11,28.61-3.75,62.66-1.74,83.74,20.66,5,5.29,9.35,12.07,9.92,19.51A16,16,0,0,1,355,177a21.92,21.92,0,0,1-8.19,6.72c-7.46,4-16,6.26-24.16,8.06a233.4,233.4,0,0,1-26.17,4c-8.78.9-17.57,1.58-26.35,2.51-4.39.47-8.78,1-13.16,1.65a112.6,112.6,0,0,0-12.76,2.31c-4.35,1.17-5.75,4.51-6.35,8.65a41.22,41.22,0,0,0,0,11.15c1,7.78,3.54,15.19,5.71,22.69,2.11,7.27,4.05,15,2.94,22.58s-5.31,14.3-10.61,19.74c-11.37,11.67-27,19.21-42.51,23.75a141.15,141.15,0,0,1-24.69,4.86,25.25,25.25,0,0,1-6.19.34c-1.92-.28-3-1.82-4-3.32-2.45-3.63-4.64-7.43-6.79-11.23-7.91-14-16.32-29.82-31.74-36.78-16.77-7.57-34.58-.76-51,4.31-8.31,2.57-17.55,5.34-25.6.54-6.19-3.69-10.81-10-13.78-16.46-5.71-12.44-5.49-27.88,1.09-40,1.79-3.29,4.26-6.12,6.16-9.34a16.46,16.46,0,0,0,2.32-11c-1.07-7-6.56-12.44-11.41-17.11-2.53-2.44-5.64-4.79-7.51-7.79-.74-1.19-1.48-2.76-.86-4.15.35-.8,1.45-2,2.39-1.44,2.82,1.55,5.35-2.76,2.53-4.32-3.45-1.9-7.46-.07-9.24,3.24-2,3.78-.25,8,2.23,11.07,4.63,5.72,11.1,9.77,14.95,16.18,1.59,2.64,2.61,5.71,1.92,8.81-.9,4.07-4,7.21-6.19,10.61a47.78,47.78,0,0,0-7.09,20.46c-1.67,14.39,3,29.73,13.25,40.11A30.5,30.5,0,0,0,44.4,275.6a26.59,26.59,0,0,0,13.53,1.22c9.25-1.28,18.07-5.06,27-7.57,8.58-2.4,17.77-4.23,26.62-2.18,7.78,1.8,14.29,6.49,19.63,12.3,6,6.48,10.29,14.22,14.58,21.86,2.25,4,4.49,8,6.95,11.87,2.22,3.48,4.52,7.14,8.94,7.79,4.15.61,8.77-.4,12.88-1,4.27-.6,8.52-1.39,12.72-2.36a128.8,128.8,0,0,0,25-8.55,101.73,101.73,0,0,0,21.54-13.34c6.2-5.05,11.78-11.24,15-18.63,6.73-15.48-.11-31.06-4.13-46.23a61.86,61.86,0,0,1-2.15-11.92,36.66,36.66,0,0,1,0-5.24c.12-1.62.17-4.31,1.21-5.66.91-1.2,3.22-1.26,4.58-1.53q3.6-.72,7.23-1.29c4.43-.71,8.88-1.27,13.34-1.76,18.08-2,36.35-2.76,54.18-6.58a110.27,110.27,0,0,0,24.82-8c7.2-3.49,13.32-9.16,14.46-17.43,2.14-15.65-10.84-29.57-22.92-37.49-12.59-8.24-27.59-12.15-42.45-13.48-36.59-3.26-71.66,11.17-108,12.32-14.85.48-30.08-1.44-43.86-7.2a66.49,66.49,0,0,1-18.05-11,57.4,57.4,0,0,1-7.45-7.82c-2.26-2.89-4.2-6.07-6.82-8.66a14.73,14.73,0,0,0-10.53-4.67c-4.25,0-8.48,1.8-12.12,3.88-6.87,3.92-12.27,9.89-16.82,16.26-9.57,13.4-15.54,30.89-30.3,39.73-6.4,3.84-14,5.73-21.27,3.39-3.08-1-4.39,3.85-1.33,4.83Z" transform="translate(-10.76 -24.7)"/></g><g class="cls-1"><path class="cls-4" d="M79.83,378.19c16.7-1.79,34.2-3.47,49.77,2.85,11.61,4.72,21.13,13.57,29,23.34a135.19,135.19,0,0,1,24.79,48.25c3,10.62,4.61,21.61,8.32,32s9.83,20.43,19.37,25.95c9.78,5.66,21.89,5.91,31.9,11.12,9.7,5,16.58,14.36,21.15,24.29,3.62,7.86,5.76,17.82.45,24.65-5.13,6.57-14.69,7.19-23,7q-16.87-.31-33.69-1.75c-10.9-.93-22.29-2.4-31.24-8.69-6.2-4.35-11.08-10.9-18.3-13.19-3.95-1.25-8.19-1.07-12.33-.8a358,358,0,0,0-61,9.3c-4.72,1.14-9.58,2.38-14.37,1.62-11.3-1.79-17.79-13.51-22.61-23.9-1.11-2.41-2.26-5.08-1.56-7.65s2.86-4.15,4.92-5.63a326.43,326.43,0,0,1,37.51-23.22c4.48-2.37,9.17-4.76,12.29-8.75,4.11-5.27,4.8-12.48,4-19.13-1.73-15.35-10.18-29.32-21-40.38S60.4,415.92,47.4,407.57c-3.52-2.26-7.18-4.65-9.31-8.26s-2.19-8.81,1-11.51c1.67-1.4,3.89-1.9,6-2.35q20-4.24,40.23-7.76" transform="translate(-10.76 -24.7)"/><path class="cls-5" d="M79.83,380.69c13.4-1.43,27.3-3,40.59.1,12.44,2.86,22.75,10.19,31.31,19.45A128.11,128.11,0,0,1,173,432a129.64,129.64,0,0,1,7,18c2.1,6.83,3.54,13.84,5.18,20.79,2.92,12.36,6.85,24.9,15.52,34.52a39.29,39.29,0,0,0,15.36,10.36c5.89,2.25,12.12,3.38,18.12,5.24a39.31,39.31,0,0,1,15.25,8.39,52.27,52.27,0,0,1,10.53,14c4.58,8.5,9.68,22.89-1.08,29.07-4.52,2.6-10.07,2.89-15.16,2.9-7.33,0-14.69-.36-22-.78-7-.4-14-.85-20.93-1.71-6-.74-12.1-2-17.57-4.54a36.25,36.25,0,0,1-7.59-4.82c-2.25-1.86-4.36-3.88-6.6-5.74a33.11,33.11,0,0,0-7.31-4.89,25.32,25.32,0,0,0-10.19-2.16c-3.46-.06-6.94.27-10.39.54q-5.58.45-11.14,1-11,1.22-21.85,3.07t-21.92,4.46c-6.14,1.46-12.72,3.56-18.87,1C62.86,558.79,59.4,555,56.72,551a69.1,69.1,0,0,1-4.2-7.21A43.74,43.74,0,0,1,49,536c-.82-2.95.72-4.75,3-6.45,2.84-2.11,5.79-4.1,8.73-6.07q8.76-5.89,17.91-11.22,4.66-2.71,9.42-5.27c2.75-1.48,5.57-2.87,8.21-4.54,5.59-3.55,9.61-8.51,11-15.08,1.3-6.14.67-12.56-.77-18.62a66.42,66.42,0,0,0-6.91-17.22c-6.46-11.39-15.75-20.84-26-28.89-5.36-4.21-11-8.12-16.64-11.87-2.87-1.9-5.77-3.75-8.66-5.62a31.13,31.13,0,0,1-6.81-5.38,9,9,0,0,1-2.4-6.77c.25-2.52,1.92-3.92,4.28-4.61,3.31-.95,6.77-1.49,10.14-2.18q5.56-1.14,11.13-2.22Q75.32,382,86,380.11A2.54,2.54,0,0,0,87.77,377a2.56,2.56,0,0,0-3.08-1.75q-11.41,2-22.81,4.22-5.57,1.08-11.13,2.23c-3.38.69-7,1.12-10.23,2.42a9.81,9.81,0,0,0-6.05,6.58,13.14,13.14,0,0,0,1,8.93c2.78,5.86,9.28,9.15,14.47,12.51,21.67,14,45.16,31,51.67,57.55,1.42,5.78,2.13,12.11.49,17.92a16.67,16.67,0,0,1-4.31,7.43,33.79,33.79,0,0,1-8,5.37,365.75,365.75,0,0,0-36.63,22.21c-2.78,1.94-6,3.83-7.92,6.68-2.08,3-1.72,6.69-.39,9.95A76,76,0,0,0,53,554.44c3.29,4.63,7.36,8.73,12.69,10.92,6.52,2.68,13.37,1.18,20-.41A354.52,354.52,0,0,1,130,557.14q5.56-.6,11.14-1a101,101,0,0,1,10.86-.53,19,19,0,0,1,9,2.42,42.61,42.61,0,0,1,6.95,5.31,90,90,0,0,0,7.05,5.88,39.83,39.83,0,0,0,8.52,4.54c6.08,2.45,12.62,3.49,19.1,4.21,7.32.8,14.68,1.27,22,1.65,7,.37,14.17.8,21.23.59,5.67-.17,11.85-1,16.64-4.28a18.23,18.23,0,0,0,7.71-15.28c0-6.31-2.21-12.42-5-18a60,60,0,0,0-10.36-15,42.63,42.63,0,0,0-15.45-10.22c-6.14-2.38-12.66-3.51-18.92-5.5a36,36,0,0,1-15.25-9.05,49.5,49.5,0,0,1-9.71-15.14c-5.53-12.93-6.95-27.2-11.21-40.54a138,138,0,0,0-17.66-36.08c-7.34-10.66-16.14-20.79-27.17-27.75-11.82-7.45-25.59-9.61-39.36-9.26-6.8.17-13.58.87-20.34,1.59a2.57,2.57,0,0,0-2.5,2.5,2.52,2.52,0,0,0,2.5,2.5Z" transform="translate(-10.76 -24.7)"/></g></g><g id="Layer_2" data-name="Layer 2"><path class="cls-6" d="M446.66,263.74A437.32,437.32,0,0,0,329.12,303a11.78,11.78,0,0,0,2.2,6.47c4.11,5.57,11.85,4.7,12.21,4.65q-.91-2.31-1.81-4.63a11,11,0,0,1,11.5-4c.37,1.34.75,2.68,1.12,4l12.73-9.8L377,292l52.77-17.87,1.23,4.81a7.41,7.41,0,0,1,8.5-2.32c.25,1.27.49,2.54.73,3.81a11.25,11.25,0,0,0,7.5-6.14C450.14,268.87,446.84,264,446.66,263.74Z" transform="translate(-10.76 -24.7)"/><path class="cls-6" d="M436.16,390.12c-6.4-2-9.31-1.09-10.78.25-2.11,1.94-.8,4.35-3.68,9.9-1.41,2.7-3.2,5.09-5.91,6.21s-5.13.84-5.84,2.37c-.4.88.57,2,.34,1.84a12.53,12.53,0,0,0,2.86,2.22c1.7.93,3,1.88,4.21,2.52.79.95,8.54,9.49,19.53,8.44a22.15,22.15,0,0,0,10.79-4.39,37,37,0,0,0-5.71-6.74,35.45,35.45,0,0,0-13-8.24,31.73,31.73,0,0,0,4.45-6.61A32.67,32.67,0,0,0,436.16,390.12Z" transform="translate(-10.76 -24.7)"/><path class="cls-7" d="M431,278.93a6.93,6.93,0,0,1,3-2.43,7.21,7.21,0,0,1,5.52.11q4.57,25.18,9.16,50.36a9.6,9.6,0,0,0-2.68-1.63,9.81,9.81,0,0,0-3.25-.72Z" transform="translate(-10.76 -24.7)"/><path class="cls-8" d="M521.76,440.6l33.07,13.09a22,22,0,0,1-5.17,21.95c-7.13,7.18-16.66,6.28-17.9,6.14q-7.18-17-14.38-33.95a6.41,6.41,0,0,0,4.38-7.23Z" transform="translate(-10.76 -24.7)"/><path class="cls-9" d="M361.61,482.31a7.18,7.18,0,0,0,2,4.09,7.08,7.08,0,0,0,4.4,2l-13.51,33.69a84.8,84.8,0,0,1-23.15-26.55Z" transform="translate(-10.76 -24.7)"/><path class="cls-10" d="M467.25,192.08c18.94-22.11,48.64-52.41,86-74.05,14.48-8.39,31.61-16.35,37.45-19.06,16.52-7.67,51-23.69,53.1-20.25,1.81,2.93-19.34,21.29-111.83,84.47Z" transform="translate(-10.76 -24.7)"/><path class="cls-11" d="M591.7,165.05l14.53,27.71a84.12,84.12,0,0,0,.77,10.38c3.54,26.06,18.55,44.9,29.1,55.55l-11.41.29c-8-10.33-16.28-22-24.49-34.91-8.63-13.6-15.9-26.66-22-38.82a13.18,13.18,0,0,0,2.57-6.71,14.06,14.06,0,0,0-3.92-10.49Z" transform="translate(-10.76 -24.7)"/><path class="cls-12" d="M590.52,121.75c10.93-9.31,26.35-22.38,47.37-35.31l1.28-.79,42.51-.89L679,158.42l-24.39-1.48-17.74-1.08c-40.5,8.53-70.13,14.43-75.32,15.2a16.47,16.47,0,0,1-6.72-.95C539.67,164.64,557,150.26,590.52,121.75Z" transform="translate(-10.76 -24.7)"/><path class="cls-13" d="M607.81,107.58l-3.56-5.08a258.85,258.85,0,0,0-25.16,10.75c-15.8,7.76-29.84,14.81-42.94,28.7A102.56,102.56,0,0,0,525,156a23.89,23.89,0,0,0,10.72,9.32Z" transform="translate(-10.76 -24.7)"/><polygon class="cls-14" points="607.38 135.02 619.11 132.65 621.26 65.68 609.01 73.97 607.38 135.02"/><path class="cls-15" d="M549,170c4.47,1.34,6.69,5,7.64,6.55,4.39,7.23,3.15,17.06-.74,24-3.56,6.35-12.53,15.91-24,13.6-9.9-2-16.18-11.73-16.72-20.74-.65-10.85,7-21.38,18.7-24.83l3.38,3.76C538.08,171.78,543.21,168.25,549,170Z" transform="translate(-10.76 -24.7)"/><path class="cls-9" d="M563,187.31c5.58,4.56,12.58,11.86,15.6,22.47a38.92,38.92,0,0,1,1.36,7.66c.86,8.51,7.43,21.62,32.34,41.87,0,2.67-.11,5.33-.17,8A522.42,522.42,0,0,1,569,237.52c-10.39-8-19.94-15.94-28.7-23.72l7.17-1.19A26.65,26.65,0,0,0,563,187.31Z" transform="translate(-10.76 -24.7)"/><path class="cls-9" d="M612.27,259.31c7.82,0,16-.58,23.83-.62-.08,2.75-.51,4.68-.59,7.43-7.8,0-15.62,1.23-23.41,1.19" transform="translate(-10.76 -24.7)"/><path class="cls-16" d="M586.47,170.26a7.22,7.22,0,1,1,1.79,14.21" transform="translate(-10.76 -24.7)"/><ellipse class="cls-17" cx="356.92" cy="457.16" rx="5.79" ry="6.38"/><circle class="cls-18" cx="302.32" cy="502.14" r="5.62"/><circle class="cls-19" cx="336.32" cy="520.28" r="4.82"/><circle class="cls-20" cx="441.88" cy="491.14" r="8.62"/><path class="cls-21" d="M439,337.19a7,7,0,0,0,4,3.91c3,1,6.18-.72,7.66-2.81,2.46-3.49.76-8.67-2.22-11.32a9.81,9.81,0,0,0-5.93-2.35" transform="translate(-10.76 -24.7)"/><path class="cls-22" d="M159.51,468.36c-6.72-4.48-15-2.38-18,2.87-2.39,4.25-1,10.14,2.72,13.61a11.78,11.78,0,0,0,14.13,1.53c4.75-3,5.2-8.62,5.24-9.26" transform="translate(-10.76 -24.7)"/><path class="cls-23" d="M162.4,556.65c-.1-.76-.82-6-4.51-7.64-5.15-2.33-14.14,3.09-15.83,10.73-1.36,6.14,2.05,13.56,6.55,14.55C154.66,575.61,163.49,565.44,162.4,556.65Z" transform="translate(-10.76 -24.7)"/><path class="cls-24" d="M511.67,571.83a35.54,35.54,0,0,0,21.22-13.72c.79,1,1.57,1.95,2.36,2.93a23.08,23.08,0,0,1-6,8.4,24,24,0,0,1-15.1,5.71" transform="translate(-10.76 -24.7)"/><path class="cls-25" d="M370.74,368.76a1.7,1.7,0,0,0,2.13-.68,1.25,1.25,0,0,0-.21-1" transform="translate(-10.76 -24.7)"/><path class="cls-16" d="M612,161.15a21.67,21.67,0,0,1,3.7,10.83,19.15,19.15,0,0,1-10.48,18.76l-1.47-2.81a20.07,20.07,0,0,0,8.72-13.35,19.7,19.7,0,0,0-2.64-13Z" transform="translate(-10.76 -24.7)"/><path class="cls-26" d="M558.51,122.64c-8.1,13.79-4,29.45,6.36,36.48a17.82,17.82,0,0,0,16.56,1.77c-18,6.76-28.37,8.26-44.14,11.44a4.65,4.65,0,0,1-2.55-1.66,5,5,0,0,1-.25-5.23Q546.49,144,558.51,122.64Z" transform="translate(-10.76 -24.7)"/><path class="cls-14" d="M569.77,164.89,554,169c-1.57-.21-6.28-1.42-8.79-4.13-3.77-4.05-4.21-10.9-.87-17q3.6-6.44,7.22-12.86c-4.28,8.26-3.5,17.72,1.82,23.69C557.67,163.53,567.76,164.66,569.77,164.89Z" transform="translate(-10.76 -24.7)"/><ellipse class="cls-9" cx="564.24" cy="112.74" rx="20.6" ry="24.68"/><ellipse class="cls-27" cx="564.75" cy="111.55" rx="15.15" ry="20.77"/><ellipse class="cls-28" cx="523.82" cy="162.52" rx="4.07" ry="6.91"/><path class="cls-28" d="M534.58,180.31c1.14-.25,4.06,2,4.2,6.42.14,4.59-2.16,7.19-2.61,7.06,2.05-.51,3.69-1,5.74-1.48a8.59,8.59,0,0,0,1.81-6.32c-.3-2.19-1.6-4.8-3.83-5.87l-.15-.07Z" transform="translate(-10.76 -24.7)"/><path class="cls-29" d="M527.84,175.23c-7.1,10.2-6.49,22.44,0,28.79,4.91,4.81,11.78,4.86,13.92,4.79" transform="translate(-10.76 -24.7)"/><path class="cls-9" d="M265.82,279.35l20.75-23,55.66,12.26-40.34,32.93-31.15-13.17Z" transform="translate(-10.76 -24.7)"/><path class="cls-9" d="M301.89,301.52l40.34-32.93,31.7,14.84c-7.36,2.83-14.56,5.74-21.92,8.56-1.88-4.25-3.91-8.59-5.78-12.85l-7.74,5.53-9.2,2.73q3.27,6.12,6.52,12.26L329.12,303c.73,2.16,1.47,4.31,2.2,6.47l1.86,2c-1,1.19-15.56,19.32-8.39,41.21,5.42,16.55,19.49,23.72,22.23,25.05l-.28.73L354.42,408a6.3,6.3,0,0,0-1.93,1.72,6.12,6.12,0,0,0-1.11,2.56l-36.21-24.48Z" transform="translate(-10.76 -24.7)"/><path class="cls-9" d="M363.2,407.94l10.94-28.26a17.45,17.45,0,0,0,6-5.24,17.13,17.13,0,0,0,2.57-5.31l10.62-1.21q-.65,12.75-1.28,25.52l-25.6,19.66a7,7,0,0,0-1.11-3.06A7.16,7.16,0,0,0,363.2,407.94Z" transform="translate(-10.76 -24.7)"/><path class="cls-30" d="M315.17,387.82l36.21,24.48a7.75,7.75,0,0,0,3.38,8.73l-21.21,11.22-48.26-14.56L281.24,404Z" transform="translate(-10.76 -24.7)"/><path class="cls-31" d="M281.24,404l33.93-16.17-13.28-86.3-30.81-12.93a168.17,168.17,0,0,0,21.7,30Q283.92,352.29,275,386Z" transform="translate(-10.76 -24.7)"/><path class="cls-9" d="M275,386q8.88-33.73,17.75-67.49A184.18,184.18,0,0,1,248.87,230,189.27,189.27,0,0,0,187.93,298a590.69,590.69,0,0,0,27.17,60.16c8.43,16.19,17.08,31,25.6,44.35l9.8,1.08a70.13,70.13,0,0,0,20.11-28.74Z" transform="translate(-10.76 -24.7)"/><path class="cls-8" d="M365.37,358.79l10,17.8q-6.13,15.48-12.26,31a6.82,6.82,0,0,0-4.66-1,8.26,8.26,0,0,0-4,1.43l-7.68-29.56,7.49-19.32a10.93,10.93,0,0,0,11.14-.35Z" transform="translate(-10.76 -24.7)"/><path class="cls-8" d="M364.79,419.48l10.12,17.87q-2,19.59-4.07,39.17a5.37,5.37,0,0,0-3.16-1,5.51,5.51,0,0,0-3.58,1.37q-7.37-18.41-14.72-36.82l5.38-19a7.81,7.81,0,0,0,10-1.55Z" transform="translate(-10.76 -24.7)"/><path class="cls-9" d="M347.08,520.48c.14.35.92,3,3.36,3.85a5.69,5.69,0,0,0,3.38.09,44.91,44.91,0,0,0-2.39,8.47,50.53,50.53,0,0,0-.62,9c-.38-.32-1.6-1.83-3.3-1.94a5.67,5.67,0,0,0-4.05,1.45,46.92,46.92,0,0,1,.52-10.13A49.82,49.82,0,0,1,347.08,520.48Z" transform="translate(-10.76 -24.7)"/><path class="cls-32" d="M342.47,546.38A5,5,0,0,0,344,549a5.52,5.52,0,0,0,3.47,1l-24.28,18.68C329.53,561.38,336.14,553.67,342.47,546.38Z" transform="translate(-10.76 -24.7)"/><path class="cls-33" d="M307.34,526a6,6,0,0,0,.55,3.32,6.12,6.12,0,0,0,2.57,2.67L272,543.9Z" transform="translate(-10.76 -24.7)"/><path class="cls-32" d="M301.31,491.85a6.5,6.5,0,0,0-2.17.6,7.21,7.21,0,0,0-3.41,3.57,35.2,35.2,0,0,1,5.9-29.22,29.5,29.5,0,0,0-3,13.79A29.17,29.17,0,0,0,301.31,491.85Z" transform="translate(-10.76 -24.7)"/><path class="cls-32" d="M585.32,456q1.44,4.89,3.07,9.94,1.88,5.82,3.83,11.33-3.26-5.16-6.58-10.33c-1.36-2.12-2.72-4.24-4.08-6.34a4.94,4.94,0,0,0,2.62-1.62A5,5,0,0,0,585.32,456Z" transform="translate(-10.76 -24.7)"/><path class="cls-32" d="M567.73,498.64a7.29,7.29,0,0,0,3.6-1.27,7.39,7.39,0,0,0,2.28-2.52,80,80,0,0,1,1.65,37.36,69.12,69.12,0,0,0-7.53-33.57Z" transform="translate(-10.76 -24.7)"/><path class="cls-32" d="M543.63,509.48a5.61,5.61,0,0,0,1.77.45,6.14,6.14,0,0,0,3.65-.92l-3.6,6.69-5.64,10.51,2.47-10.83Z" transform="translate(-10.76 -24.7)"/><path class="cls-32" d="M510.15,569.76a8.52,8.52,0,0,1-.8,3.46c-1.89,3.93-6.57,5.08-7.39,5.28-1.41.34-4.18,1-6.62-.38a8,8,0,0,1-2.81-3.16c-3.39-6.78-4.42-66.1,9.25-67.41,6.74-.64,14.11,15.61,13.47,16.1-.47.36-9-13.88-13.62-12.25-4.21,1.47-5.61,16.08-1.36,28.46C502.82,547.29,510.31,562.39,510.15,569.76Z" transform="translate(-10.76 -24.7)"/><path class="cls-9" d="M437.39,339l1.87-1.78a6.88,6.88,0,0,0,4.88,4.12,6.52,6.52,0,0,0,6.35-2.49q3.18,4.89,6.38,9.85,2.75,4.27,5.45,8.51l1.14,43.52a11.61,11.61,0,0,0-2.44,0A9.29,9.29,0,0,0,458.2,402c-7.18-12.6-14.41-25.74-21.59-38.34Z" transform="translate(-10.76 -24.7)"/><path class="cls-30" d="M354.34,309.46,377,292l17,59.92-19.23,17.61q-4.74-5.36-9.46-10.73a7.9,7.9,0,0,0,3.39-5.17,8.07,8.07,0,0,0-4.31-8.05Z" transform="translate(-10.76 -24.7)"/><path class="cls-9" d="M377,292l52.77-17.87q7.31,28.51,14.63,57a52.26,52.26,0,0,1-16.17,14.47c-14.62,8.35-29.06,7-34.21,6.3Z" transform="translate(-10.76 -24.7)"/><path class="cls-31" d="M374.83,369.52l19.23-17.61a53.13,53.13,0,0,0,38.46-9q-6.84,5.91-13.79,11.85-6.27,5.36-12.5,10.6c-3.08.76-6.35,1.46-9.78,2.06A146.15,146.15,0,0,1,374.83,369.52Z" transform="translate(-10.76 -24.7)"/><path class="cls-34" d="M412.51,295l-10.19,3.83a23,23,0,0,0-5,16.09c.77,9.36,7.52,14.1,8.64,15,3.38.11,6.12.52,9.49.63" transform="translate(-10.76 -24.7)"/><path class="cls-35" d="M426.27,314.8c0,11-3.1,15.23-10.85,15.74-6.76.45-13.7-4.71-13.7-15.74s5.5-20,12.28-20S426.27,303.77,426.27,314.8Z" transform="translate(-10.76 -24.7)"/><path class="cls-8" d="M307,260.84a32.15,32.15,0,0,0,16.21-29.1q36.17,22.17,72.31,44.36l-21.63,7.33-31.7-14.84Z" transform="translate(-10.76 -24.7)"/><path class="cls-8" d="M468.77,406.56l15,.67,32.77,29.61a5.54,5.54,0,0,0-5.48,4.79l-41.16-13-6.31-15a6.79,6.79,0,0,0,4.07-2.72A6.71,6.71,0,0,0,468.77,406.56Z" transform="translate(-10.76 -24.7)"/><path class="cls-36" d="M307.18,494.89l21.39-1a5.31,5.31,0,0,0-.87,3.22,5.5,5.5,0,0,0,2.34,4c-7.55.08-15.49.24-23.05.31a5.52,5.52,0,0,0,1.28-3.33A5.75,5.75,0,0,0,307.18,494.89Z" transform="translate(-10.76 -24.7)"/><path class="cls-36" d="M335.47,507.29a6.21,6.21,0,0,0,4.34,8.13l-21.24,10.21a4.6,4.6,0,0,0-1.11-2.68,4.54,4.54,0,0,0-2.83-1.5Z" transform="translate(-10.76 -24.7)"/><path class="cls-8" d="M173.29,237.69a94.4,94.4,0,0,0,40,23.63l-21.61,29.9a97.7,97.7,0,0,1-44.44-51.82Z" transform="translate(-10.76 -24.7)"/><path class="cls-30" d="M143.85,287.74q1.69-24.18,3.4-48.34a100.26,100.26,0,0,0,23.66,36.34,98.57,98.57,0,0,0,20.78,15.48q-1.89,3.36-3.76,6.73l18.87,43.59a112,112,0,0,1-63-53.8Z" transform="translate(-10.76 -24.7)"/><path class="cls-13" d="M427.74,347.11q3.24,9.33,6.49,18.65l-3.74-.07a38.48,38.48,0,0,1,5.67,24.43c-6.62-2-9.44-1.08-10.78.25-1.58,1.58-1.06,3.65-2.25,7.06a19,19,0,0,1-5.92,8.26l-27.56-10.41,2.37-1.84q.63-12.76,1.28-25.52l12.93-2.57Z" transform="translate(-10.76 -24.7)"/><path class="cls-32" d="M181.24,541.78c.59-20.17,7.32-34.17,13.5-34.64,1.91-.14,6.16.83,10,3a24.33,24.33,0,0,1,5.15,3.85c5.84,5.79,6.78,13.68,7,16.34.54-1.19,4.82-11-.42-20.47a21.5,21.5,0,0,0-9.58-8.93c-9.55-4.43-18.71.12-19.91.74a29.6,29.6,0,0,0-8.39,7.72c-8.32,11.45-5.22,25.19-4.57,27.83Z" transform="translate(-10.76 -24.7)"/><path class="cls-32" d="M93.29,546.2,106,544.74,130.4,542a46.57,46.57,0,0,0-30.3,39.66q-2.22-12-4.59-24.17Q94.42,551.8,93.29,546.2Z" transform="translate(-10.76 -24.7)"/><path class="cls-37" d="M127,247.4l9.87-22.73c-2.73-5-22.5-42.8-5-83,10.34-23.73,28.45-36.34,36.36-41.18-10.8,5.22-27.15,15.24-39.38,33.57C96.09,183.19,125.14,243.68,127,247.4Z" transform="translate(-10.76 -24.7)"/><path class="cls-38" d="M127,247.4l4.68,1.66A14.9,14.9,0,0,1,136.53,234a14.55,14.55,0,0,1,10.38-2.85l-.34-3.45-9.7-3Z" transform="translate(-10.76 -24.7)"/><path class="cls-39" d="M146.57,227.65c-3.25-4.3-20.9-28.45-14.15-56.76,5.17-21.74,22.12-34.95,32.9-43.35,8.93-7,16.69-10.75,25.78-15.19a235.64,235.64,0,0,1,47.19-16.81,598.51,598.51,0,0,1,82.85-14.88,676.56,676.56,0,0,1,87.73-3.56L413.46,73c-4.48-.57-12.36-1.53-22.19-2.44-47.16-4.34-116.34-10-190.68,16.4a330.57,330.57,0,0,0-32.34,13.51,89.6,89.6,0,0,0-33.84,35.86,93.57,93.57,0,0,0-9.67,41.86,96.37,96.37,0,0,0,12.13,46.47Z" transform="translate(-10.76 -24.7)"/><path class="cls-32" d="M171.25,535.57a166.51,166.51,0,0,1,59.58,58.21,179.49,179.49,0,0,1-86-15.83,82.28,82.28,0,0,0,26.38-42.38Z" transform="translate(-10.76 -24.7)"/><path class="cls-32" d="M517.29,550.72a57.33,57.33,0,0,1,10.56-2.9c40.43-7,76.51,32.69,84.93,42.38a119.29,119.29,0,0,0-77.61-2.55c1-1.56,5.8-9.29,3.51-18.68S527.91,552.27,517.29,550.72Z" transform="translate(-10.76 -24.7)"/><path class="cls-8" d="M231.76,407.7l4.77,6.16c-1.15-.57-6-2.93-7.66-1.27-2,2,2.14,8.91,2.95,10.25a35.81,35.81,0,0,0,14,12.85q-25.29,13-51,25.95-16.91,8.49-33.72,16.82a3.57,3.57,0,0,1-5-5.11q12.36-16.85,24.71-33.71l13.85-18.88Z" transform="translate(-10.76 -24.7)"/><path class="cls-8" d="M141.84,481.17c2.94,5.91,8.06,8.08,15.62,5.85a312.74,312.74,0,0,0-3.57,38.05c-.26,8.24-.18,16.07.14,23.43-1.51,2.74-4.27,4-7.82,4.23a101.75,101.75,0,0,1-18.87-44.4,51,51,0,0,1,14.5-27.16Z" transform="translate(-10.76 -24.7)"/><path class="cls-8" d="M422.49,420.15a21.78,21.78,0,0,0,14.67,3.69,21.31,21.31,0,0,0,10.52-4.36q1.81,3.47,3.65,6.91l5.34,81.84a8.62,8.62,0,0,0-9.42.89l-28.85-52.7Q420.44,438.29,422.49,420.15Z" transform="translate(-10.76 -24.7)"/><path class="cls-8" d="M459,521.67q14.71,22.16,29.41,44.31a9.21,9.21,0,0,0-6.94,6.61L464.91,563l-11.28-6.53-6.45-34a9,9,0,0,0,6.87,1.82A8.78,8.78,0,0,0,459,521.67Z" transform="translate(-10.76 -24.7)"/><path class="cls-8" d="M559.69,455l16.87-1.74a4.65,4.65,0,0,0-.66,3.1,4.7,4.7,0,0,0,1.29,2.6L561,460.33a10,10,0,0,0-.2-2.3A9.93,9.93,0,0,0,559.69,455Z" transform="translate(-10.76 -24.7)"/><path class="cls-36" d="M556.18,472.77l12.26,15.48a3.67,3.67,0,0,0-3.06.76,4.67,4.67,0,0,0-1.78,3l-11.7-12.85a4.92,4.92,0,0,0,3.65-1.94A5,5,0,0,0,556.18,472.77Z" transform="translate(-10.76 -24.7)"/><path class="cls-36" d="M538.59,481l8.73,19a6.57,6.57,0,0,0-5.34,1.63l-9.6-17.32a5.79,5.79,0,0,0,6.21-3.33Z" transform="translate(-10.76 -24.7)"/><path class="cls-13" d="M552.74,169.24" transform="translate(-10.76 -24.7)"/><path class="cls-7" d="M549.46,170.12a12.52,12.52,0,0,1,3.65,1.95c6.62,5.19,6.06,16.26,4.7,22-3,12.59-14.65,18.39-16.6,19.32l6.3-.74c2.67-.41,5.48-3.05,8-6.07.75-.9,9.23-9.64,7.26-22.48-.43-2.83-1-8-5.12-11.83a15.07,15.07,0,0,0-4.91-3Z" transform="translate(-10.76 -24.7)"/><path class="cls-40" d="M603.7,187.93c1-.7,8.5-6.11,8.91-15.51a19.49,19.49,0,0,0-2.83-10.83l-3.52.73a17.61,17.61,0,0,1,.59,12.15,17.42,17.42,0,0,1-5.86,8.3Z" transform="translate(-10.76 -24.7)"/><path class="cls-13" d="M639.38,85.65c-.77,23.4-1.32,46.77-2.09,70.17,13.93.75,27.78,1.85,41.71,2.6q1.51-36.69,3-73.36C667.85,85.35,653.55,85.35,639.38,85.65Z" transform="translate(-10.76 -24.7)"/><path class="cls-41" d="M650.57,91.91l2.55,11.15L644,97.61Z" transform="translate(-10.76 -24.7)"/><path class="cls-27" d="M344.61,316.9c2.18,5.74,4.41,11.76,6.6,17.5-4.76-2.42-9.56-5.12-14.31-7.54a31.28,31.28,0,0,1,4-6.15A31.6,31.6,0,0,1,344.61,316.9Z" transform="translate(-10.76 -24.7)"/><path class="cls-27" d="M336.9,326.86l14.42,7.71c1,2.58,2,5.17,3,7.75l-12.17,17.86a28.54,28.54,0,0,1-5.23-33.32Z" transform="translate(-10.76 -24.7)"/><path class="cls-27" d="M354.3,342.32l1.18,3a8.2,8.2,0,0,0-4.72,8.26,7.91,7.91,0,0,0,3.42,5.19l-2.63,7.83a28.09,28.09,0,0,1-9.42-6.45Z" transform="translate(-10.76 -24.7)"/><path class="cls-42" d="M366,360l6.62,7.1" transform="translate(-10.76 -24.7)"/><path class="cls-27" d="M372.66,367.09a1.22,1.22,0,0,1-.45,1.62,1.2,1.2,0,0,1-1.38-.23l-4.95-9Z" transform="translate(-10.76 -24.7)"/><path class="cls-27" d="M243.69,282.57a54.07,54.07,0,0,0-3.82-5.71,52.6,52.6,0,0,0-6.24-6.79,60.77,60.77,0,0,0-13.79,40.67l11,.13a55.11,55.11,0,0,1,1.23-12.06c1.21-5.57,3.18-14.62,8.71-16.13A6.73,6.73,0,0,1,243.69,282.57Z" transform="translate(-10.76 -24.7)"/><path class="cls-42" d="M219.49,310.73l11.71.5c-.07,2.4,0,11.2,6,15.83a12.83,12.83,0,0,0,2.21,1.35l-9.27,8.26a41.41,41.41,0,0,1-7.46-11.75A41.83,41.83,0,0,1,219.49,310.73Z" transform="translate(-10.76 -24.7)"/><path class="cls-27" d="M239.42,328.41l6,.92a62.33,62.33,0,0,1-9,13.86l-6.23-6.12Q234.81,332.75,239.42,328.41Z" transform="translate(-10.76 -24.7)"/><path class="cls-43" d="M249,297a5.9,5.9,0,0,0-4.59-.77c-4.18,1.4-4.21,9.3-4.21,10.56,0,5.06,1.94,11.91,5.15,12.22.72.07,2.1-.13,4-2.52A33.59,33.59,0,0,0,249,297Z" transform="translate(-10.76 -24.7)"/><path class="cls-24" d="M591.78,165.2l6.71-1.37,4.61,6.46c1.08-2.61,2.15-5.21,3.22-7.82a18,18,0,0,1,1.06,8.62A18.85,18.85,0,0,1,601,182.77Z" transform="translate(-10.76 -24.7)"/><path class="cls-14" d="M239.08,411.44a67.47,67.47,0,0,0,31.53-36.64q4.56,11.81,8.9,24.68,3.12,9.28,5.78,18.21a151.44,151.44,0,0,1-34.46,32.17,102.14,102.14,0,0,0-11.75-38.42Z" transform="translate(-10.76 -24.7)"/><path class="cls-10" d="M271.89,391.91q.57,12.63,1.15,25.27-6.19,9.39-12.38,18.77" transform="translate(-10.76 -24.7)"/><path class="cls-14" d="M430.49,365.69c2.38.19,5,0,7.39.22,6.85,11.91,13.47,24.16,20.32,36.08a6.72,6.72,0,0,0-.31,10.21,69.68,69.68,0,0,1-6,15.79,39.55,39.55,0,0,0-23-23.49c2.74-3.2,6.78-9,7.38-16.8a30.68,30.68,0,0,0-.43-7.55A39.78,39.78,0,0,0,430.49,365.69Z" transform="translate(-10.76 -24.7)"/><path class="cls-14" d="M491.73,572.2a7.89,7.89,0,0,0,3.12,5.64c2.76,1.91,5.92,1,7.11.66,5.78-1.66,7.93-7.94,8.19-8.74l14.29,19.42-49.7-1Z" transform="translate(-10.76 -24.7)"/><path class="cls-44" d="M435.42,276.25q8.55,48.13,7.35,48.37T431,278.93a5.72,5.72,0,0,1,3-2.43A4.94,4.94,0,0,1,435.42,276.25Z" transform="translate(-10.76 -24.7)"/><path class="cls-45" d="M607.81,107.58l31.06-22.17q5.73-5.19,4.89-6.69c-.36-.65-1.63-.78-3.8-.41a512.23,512.23,0,0,0-109,54.17c-13.09,8.59-21.83,17.22-27.25,22.05a368,368,0,0,0-36.31,37.36l64.52-28.7A23.72,23.72,0,0,1,525,156a95.49,95.49,0,0,1,8-10.61,97.45,97.45,0,0,1,24.23-20,19.88,19.88,0,0,1,10.34-11,19.23,19.23,0,0,1,11.46-1.14l25.16-10.75Z" transform="translate(-10.76 -24.7)"/><path class="cls-6" d="M639.88,74.86l3.24,3.26a440.87,440.87,0,0,0-55.41,22.13s-17,8.15-31.68,16.81c-39.6,23.35-72.23,56.62-89,75l-1.18-5.77a377.71,377.71,0,0,1,53.62-49.87A382.5,382.5,0,0,1,639.88,74.86Z" transform="translate(-10.76 -24.7)"/><path class="cls-6" d="M566.06,49.21q6.83,8.55,14,17.24c3.89,4.69,6.83,9.32,10.69,13.83-12,7.89-23.86,15.82-37.58,23.72-16.43,9.46-32.33,17.78-47.48,25.1L495.39,113,482.7,93.26a98.86,98.86,0,0,1,83.36-44.05Z" transform="translate(-10.76 -24.7)"/><path class="cls-46" d="M596.78,76.16l.09,14.66a378.19,378.19,0,0,0-83.08,50.05l-18.28-7c17.78-8.1,36.86-17.76,56.74-29.32C568.48,95.11,583.32,85.54,596.78,76.16Z" transform="translate(-10.76 -24.7)"/><path class="cls-7" d="M516.5,200.2a22.2,22.2,0,0,0,6.22,9.46,132.2,132.2,0,0,1-11.23,28.1,141.1,141.1,0,0,1-18.75,26.49,184.64,184.64,0,0,1-28.39,26.49,191.57,191.57,0,0,1-49.86,27.12,5.44,5.44,0,0,1-3.58-2.29,5.61,5.61,0,0,1-.51-4.85,177.23,177.23,0,0,0,49.28-28.86,192.08,192.08,0,0,0,37.86-43.61A199.81,199.81,0,0,0,516.5,200.2Z" transform="translate(-10.76 -24.7)"/><path class="cls-7" d="M572.15,169l4.66-1a13.53,13.53,0,0,1,2,16.22,13.38,13.38,0,0,1-12.35,6.17q-1.75-1.58-3.53-3.13c0-.47,0-.94,0-1.41a10.6,10.6,0,0,0,9.61-4.42A10.75,10.75,0,0,0,572.15,169Z" transform="translate(-10.76 -24.7)"/><path class="cls-7" d="M353.22,305.44a10.25,10.25,0,0,0-11.5,4q6.88,18,13.76,35.89a19.2,19.2,0,0,1,4-.42,18.94,18.94,0,0,1,5,.64Q358.84,325.5,353.22,305.44Z" transform="translate(-10.76 -24.7)"/><path class="cls-7" d="M428.89,267.28c-1-2.83-2.06-5.65-3.08-8.48a43.71,43.71,0,0,0,6.89-1.7,43,43,0,0,0,6-2.56l3.38,9.71Z" transform="translate(-10.76 -24.7)"/><path class="cls-7" d="M329.29,287.4l9.2-2.73,7.74-5.53q2.89,6.54,5.78,13.09l-16.2,7.43Q332.55,293.52,329.29,287.4Z" transform="translate(-10.76 -24.7)"/><path class="cls-27" d="M157.9,238.49l-10.56.74-1.53,21.1a9,9,0,0,1-5.53.51c-6.82-1.79-12-13.83-7.49-22.21,2.23-4.17,7.27-8.22,13.53-7.79C153.85,231.37,157.63,238,157.9,238.49Z" transform="translate(-10.76 -24.7)"/><path class="cls-27" d="M555.93,170.67a19,19,0,0,0,4.34.46,29.82,29.82,0,0,0,5.91-.88l6-1.24a10.47,10.47,0,0,1,1.51,10.47,10.58,10.58,0,0,1-10.74,6.2,21.79,21.79,0,0,0-1-6.16,17.41,17.41,0,0,0-3-5.93A16.21,16.21,0,0,0,555.93,170.67Z" transform="translate(-10.76 -24.7)"/><path class="cls-47" d="M578.16,185.25c6.09,11.78,13.14,24.28,21.3,37.25,8.46,13.44,17,25.59,25.23,36.48l-12.42.33L608,255.79q.57-4,1.12-7.95l-7.56,1.89-2.85-2.39q1-4.16,2-8.33l-7,2.93-1.88-1.85q1.11-3.61,2.24-7.25l-6.82,1.48a33.26,33.26,0,0,1-4.11-6.31,35.48,35.48,0,0,1-3.53-12.84c-.58-5.28-3.26-13.18-12.65-24.52a14.22,14.22,0,0,0,11.12-5.4Z" transform="translate(-10.76 -24.7)"/><path class="cls-48" d="M243.69,282.57a52.31,52.31,0,0,1,3.74,7.73,54.13,54.13,0,0,1,2.09,6.67,9.78,9.78,0,0,0-.15,19.51,37.25,37.25,0,0,1-1.45,6.83,39,39,0,0,1-2.48,6,15.5,15.5,0,0,1-9.25-3.55c-4.79-4.21-4.86-10.57-4.94-16.68-.12-9.94,2.76-25.07,9.95-26.55A6.22,6.22,0,0,1,243.69,282.57Z" transform="translate(-10.76 -24.7)"/><path class="cls-48" d="M373,367.59c.54.54,1.26,1.39,1.81,1.93,2.51,0,5.34-.34,7.85-.39a18.63,18.63,0,0,1-2.57,5.31,16,16,0,0,1-6,5.24l1.35-3.35q-2.39-3.78-4.75-7.57a2,2,0,0,0,1.87-.09C373,368.42,373,367.77,373,367.59Z" transform="translate(-10.76 -24.7)"/><path class="cls-48" d="M351.21,366.65l-4.06,10.77c-2.28-1.06-18.12-8.78-23.08-27.25-5.67-21.09,7.94-37.36,9.11-38.7a12,12,0,0,0,10.35,2.62l1.08,2.81a29.85,29.85,0,0,0-10.34,28.62C337.14,360,349.91,366.05,351.21,366.65Z" transform="translate(-10.76 -24.7)"/><path class="cls-49" d="M491.73,572.2q-.41-3-.79-6.11a8.75,8.75,0,0,0-7.82,14.2Z" transform="translate(-10.76 -24.7)"/><path class="cls-50" d="M512,571.75" transform="translate(-10.76 -24.7)"/><circle class="cls-51" cx="321.77" cy="471.97" r="4.85"/><circle class="cls-52" cx="329.94" cy="484.99" r="5.53"/><circle class="cls-53" cx="341.53" cy="494.55" r="5.21"/><path class="cls-7" d="M125.65,543.76l-3.2,1.76c0,.73-.06,11.47,8.76,17.26a19.94,19.94,0,0,0,14.34,2.74,3.43,3.43,0,0,0,.14-4,3.48,3.48,0,0,0-2.61-1.39,12.29,12.29,0,0,1-4.9-.13C128.67,557.77,125.77,544.35,125.65,543.76Z" transform="translate(-10.76 -24.7)"/><ellipse class="cls-54" cx="576.58" cy="152.68" rx="5.23" ry="7.21"/><path class="cls-55" d="M527.62,175.56c-6.78,9.94-6.23,21.84.07,28.2,4.73,4.77,11.32,5.06,13.5,5.06a16.07,16.07,0,0,1-8.18.56,16.29,16.29,0,0,1-9-5.2,17.7,17.7,0,0,1-4.33-10.46C518.79,183.66,526.55,176.51,527.62,175.56Z" transform="translate(-10.76 -24.7)"/><path class="cls-6" d="M250.5,403.54a76.31,76.31,0,0,0-9.93-.78l-3.52-6.11c-.7,0-4.22-.23-6,2.05-2.11,2.69-.28,6.79.63,8.82a17.35,17.35,0,0,0,7.43,7.88,18.87,18.87,0,0,0-5.9-2.73c-2.07-.54-3.37-.87-4.11-.27-1.53,1.25.44,6.58,2.49,10.19,4.85,8.52,12.92,12.35,15.16,13.38.71.32,1.3.57,1.71.73-.4-2-.9-4.12-1.5-6.28A86.88,86.88,0,0,0,239,411.23l.89-.56c2.31-1.41,4.06-2.33,4.48-2.55A30.54,30.54,0,0,0,250.5,403.54Z" transform="translate(-10.76 -24.7)"/><path class="cls-10" d="M484.75,272.89a5.6,5.6,0,1,1-6.66-9" transform="translate(-10.76 -24.7)"/><path class="cls-10" d="M464.35,290.74c-2.75,2.08-6.51,1.13-7.82-1.3a5.28,5.28,0,0,1,2.17-6.77" transform="translate(-10.76 -24.7)"/><path class="cls-31" d="M555.45,129.64a22.81,22.81,0,0,1,7-11.69,20.72,20.72,0,0,1,4.34-2.81c-8.75,10.17-10.64,23.81-5,34,4.91,8.81,13.79,11.86,16.34,12.64A18.57,18.57,0,0,1,569,161a19.09,19.09,0,0,1-8.53-6.14C554.4,147.8,553.22,137.63,555.45,129.64Z" transform="translate(-10.76 -24.7)"/><path class="cls-31" d="M534.81,164.86a23.65,23.65,0,0,1-4.55-2.92A23.92,23.92,0,0,1,525,156a86,86,0,0,1,31.4-29.87q-5.82,10-11.66,20.47Q539.65,155.82,534.81,164.86Z" transform="translate(-10.76 -24.7)"/><path class="cls-31" d="M563.06,187.72a47.31,47.31,0,0,1,11.76,22.1c.58,2.76.3,2.78.77,5.41,2.73,15,14.13,25.85,25.87,36.76,2.4,2.23,6,5.41,10.56,9,0,2.1.05,4.2.08,6.3-5.09-3.39-12.41-8.32-21.19-14.38-11.68-8.07-17.52-12.11-24.39-17.36-6.5-5-15.5-12.2-25.82-21.79l8.34-1.42a27.28,27.28,0,0,0,14-24.64Z" transform="translate(-10.76 -24.7)"/><path class="cls-31" d="M612.1,267.31c0-1.92-.05-3.83-.07-5.75l23.69,1.79-.21,2.77Z" transform="translate(-10.76 -24.7)"/><path class="cls-31" d="M587.88,118.18a19.26,19.26,0,0,0-8.79-4.93l25.16-10.75Z" transform="translate(-10.76 -24.7)"/><path class="cls-56" d="M465.89,186.29c.45,1.93.91,3.86,1.36,5.79,3.85-4.57,9.28-10.7,16.17-17.58a292.08,292.08,0,0,1,23.24-20.68c19.65-16,39.48-30,52.21-38.81a273.41,273.41,0,0,0-93,71.28Z" transform="translate(-10.76 -24.7)"/><path class="cls-56" d="M505.45,129c9.33-4.71,18.56-9.2,27.92-14,4.59-2.33,10-5.76,14.56-8.1-4.84-2.51-11.6-5.49-17.55-11.28A71.94,71.94,0,0,1,511.7,64.79c-2.63,1.68-5.4,3.34-8.14,5.48-9.33,7.3-15.73,15.81-20.72,22.77C490.53,105.23,497.76,116.81,505.45,129Z" transform="translate(-10.76 -24.7)"/><path class="cls-57" d="M566.06,49.21l24.72,31.07c-10.38,6.94-21,13.66-31.93,20.16A44.5,44.5,0,0,0,557.08,80C551.6,63.75,538.34,56,534.69,54a99.77,99.77,0,0,1,31.37-4.76Z" transform="translate(-10.76 -24.7)"/><path class="cls-58" d="M681.68,84.76l-25.53.89c44.55,32.53-14.17,40.47,1.5,71.44L679,158.42Z" transform="translate(-10.76 -24.7)"/><path class="cls-57" d="M639.88,74.86l3.24,3.26q-10.67,4-21.57,8.3Q599.89,95,579.68,103.91a320.82,320.82,0,0,1,43.4-22.47C628.81,79,634.42,76.83,639.88,74.86Z" transform="translate(-10.76 -24.7)"/><path class="cls-30" d="M417.21,405.69l-28-10.55,2.81-1.7q.63-12.76,1.28-25.52l12.93-2.57L422,352.25c2.41,12.11,4.82,24.45,7.23,36.56a5.85,5.85,0,0,0-3.33,1.15c-2.48,2.07-1.83,5.29-3.31,9A15.67,15.67,0,0,1,417.21,405.69Z" transform="translate(-10.76 -24.7)"/><path class="cls-59" d="M673,91.31l5.45,5.36-9,5.87Q671.26,96.93,673,91.31Z" transform="translate(-10.76 -24.7)"/><path class="cls-44" d="M516.5,200.2c-1.49,5.81-3.87,14.59-7.29,25.15-6.27,19.36-11,29.37-9.87,30s8.9-10.62,14.58-22.29a134.12,134.12,0,0,0,8.8-23.36,22.2,22.2,0,0,1-6.22-9.46Z" transform="translate(-10.76 -24.7)"/><path class="cls-10" d="M520.89,215.8a6.15,6.15,0,0,1-4.79-.23,6.49,6.49,0,0,1-2.76-7.39" transform="translate(-10.76 -24.7)"/><path class="cls-10" d="M513.92,233a6.15,6.15,0,0,1-6.33.76,6.29,6.29,0,0,1-3.1-7.28" transform="translate(-10.76 -24.7)"/><path class="cls-10" d="M501.21,253.84a6.48,6.48,0,0,1-7.4-.49c-2.45-2.15-2.73-6.47-.05-9.4" transform="translate(-10.76 -24.7)"/><path class="cls-58" d="M395.56,276.1q-36.15-22.19-72.31-44.36a21.65,21.65,0,0,1-.19,4.78,22.4,22.4,0,0,1-.49,2.37Z" transform="translate(-10.76 -24.7)"/><path class="cls-31" d="M354.6,421.61,349.38,440q7.37,18.42,14.72,36.82a3.09,3.09,0,0,1,1.36-1.11,3.17,3.17,0,0,1,1.55-.22l-8.86-34.42Z" transform="translate(-10.76 -24.7)"/><path class="cls-36" d="M361.61,482.31l1.05,3.23-27,17.06L334.65,501a5,5,0,0,0,2.54-3,5.11,5.11,0,0,0-.89-4.38Z" transform="translate(-10.76 -24.7)"/><path class="cls-31" d="M351.52,524.59a10.65,10.65,0,0,1-2.26-.86c-1.36-.77-1.77-2.43-2.18-3.06a61,61,0,0,0-2.93,10.26,54.32,54.32,0,0,0-.75,10.45,4.5,4.5,0,0,1,2.53-1.38,5.67,5.67,0,0,1,2.85.23,22.49,22.49,0,0,1,0-9.49A21.8,21.8,0,0,1,351.52,524.59Z" transform="translate(-10.76 -24.7)"/><path class="cls-31" d="M354.23,359.14a13.09,13.09,0,0,0,3.85,1.26,12.63,12.63,0,0,0,3.47.1q1.74,8.89,3.49,17.79-2.69,14.08-5.36,28.17a9.94,9.94,0,0,0-2.71.41,10.29,10.29,0,0,0-2.55,1.15q-3.75-14.61-7.51-29.22Z" transform="translate(-10.76 -24.7)"/><path class="cls-58" d="M248.87,230a184.38,184.38,0,0,0,43.91,88.51A91.8,91.8,0,0,1,248.87,230Z" transform="translate(-10.76 -24.7)"/><path class="cls-31" d="M307.34,260.72a33.23,33.23,0,0,0,7.44-6.05,32.53,32.53,0,0,0,5.81-8.9l35.31,19.37,18,18.09L342.4,268.42Z" transform="translate(-10.76 -24.7)"/><path class="cls-31" d="M437.39,339l1.87-1.78A7,7,0,0,0,443,341.1a6.73,6.73,0,0,0,3.91.34L445.63,362l15.87,38.68a4,4,0,0,0-2.11.41,3.94,3.94,0,0,0-1.19.95l-21.59-38.34Z" transform="translate(-10.76 -24.7)"/><path class="cls-31" d="M468.28,409.69a6.61,6.61,0,0,1-2.08,2.67,6.72,6.72,0,0,1-2.62,1.2l6.31,15,41.16,13a7.29,7.29,0,0,1,.27-1.07,7.87,7.87,0,0,1,.95-2l-37-19.73Z" transform="translate(-10.76 -24.7)"/><path class="cls-31" d="M517.52,448.16a11.78,11.78,0,0,0,2.54-1.3,9.13,9.13,0,0,0,.88-.65l21.45,34.14-3.62,1a5.68,5.68,0,0,0-3-7,5.61,5.61,0,0,0-6.33,1.56Q523.5,462.07,517.52,448.16Z" transform="translate(-10.76 -24.7)"/><path class="cls-31" d="M561,460.33a7.77,7.77,0,0,0,.08-1.87,7,7,0,0,0-.21-1.36l14.94-1.36a4.84,4.84,0,0,0,.38,2.08A5,5,0,0,0,577,459Z" transform="translate(-10.76 -24.7)"/><path class="cls-31" d="M422.49,420.15a21.16,21.16,0,0,0,25.19-.67,23.56,23.56,0,0,1,2.58,4.56,24.4,24.4,0,0,1,1,2.91q-5.68,13.11-11.39,26.23,3.67,28,7.36,55.94l-28.85-52.7Q420.44,438.29,422.49,420.15Z" transform="translate(-10.76 -24.7)"/><circle class="cls-60" cx="451.48" cy="382.44" r="6.55"/><circle class="cls-61" cx="505.77" cy="417.68" r="5.53"/><circle class="cls-62" cx="543.98" cy="433.93" r="6.13"/><circle class="cls-63" cx="540.07" cy="449.08" r="5.45"/><circle class="cls-64" cx="522.88" cy="454.53" r="5.28"/><circle class="cls-65" cx="535.09" cy="480.1" r="4.98"/><circle class="cls-66" cx="557.68" cy="468.57" r="5.02"/><circle class="cls-67" cx="569.68" cy="431.04" r="4.6"/><circle class="cls-68" cx="291.09" cy="473.29" r="6.17"/><circle class="cls-69" cx="348.11" cy="389.72" r="7.79"/><path class="cls-70" d="M495.51,133.86Q507,128.65,519,122.61c10.9-5.51,21.2-11.11,30.9-16.7l12,2.49c-8.32,4.73-17.09,10.14-26.15,16.32-8,5.42-15.25,10.85-21.93,16.15Z" transform="translate(-10.76 -24.7)"/><path class="cls-71" d="M596.78,76.16l.06,9.62,0,5c-.62-.09-1.24-.18-1.87-.25-6.72-.79-16.32-.37-28,5.17q7-4.35,14.26-9.07Q589.27,81.41,596.78,76.16Z" transform="translate(-10.76 -24.7)"/><path class="cls-30" d="M533.46,164.15a76.94,76.94,0,0,1,19.47-36A85.76,85.76,0,0,0,525,156a24,24,0,0,0,8.42,8.16Z" transform="translate(-10.76 -24.7)"/><path class="cls-31" d="M204.1,274.08c-3.94,5-7.92,10.57-11.81,16.66-1.41,2.21-3.09,5.05-4.36,7.21a568.62,568.62,0,0,0,29.15,63.92c7.74,14.67,15.75,28.28,23.62,40.59,3.28.3,6.52.78,9.8,1.08a74.85,74.85,0,0,0,11.94-13.36A77.39,77.39,0,0,0,268.22,380C226.7,355.27,212,316,204.1,274.08Z" transform="translate(-10.76 -24.7)"/><path class="cls-31" d="M231.76,407.7a13,13,0,0,0,4.77,6.16,20.48,20.48,0,0,0-5.75-1.91,2.17,2.17,0,0,0-1.91.64c-1.92,1.94,1.68,8.83,4.47,12.7a33.69,33.69,0,0,0,12.51,10.4l-44.56-1.78-46,41,39.36-54.14Z" transform="translate(-10.76 -24.7)"/><path class="cls-31" d="M447.26,522.94a8.46,8.46,0,0,0,3.31,1.52,8.54,8.54,0,0,0,4.34-.21Q469.6,546,484.27,567.74a10.29,10.29,0,0,0-1.74,2,10.14,10.14,0,0,0-1.19,2.55L453.63,556.5Q450.45,539.73,447.26,522.94Z" transform="translate(-10.76 -24.7)"/><path class="cls-72" d="M539,214.05c2.54,5.61,24,54.89-1.23,90.36-14.26,20-43.91,36.35-56.17,28.26-5.32-3.51-7.1-11.43-6.49-17.08,1-9.08,8.74-18.56,17-18.15,7.7.38,15.68,9.44,14.81,16.85-1.81,15.39-42.7,31.52-72.56,18.5-9.87-4.3-16.5-11.48-20-15.56" transform="translate(-10.76 -24.7)"/><path class="cls-44" d="M410.4,310.72c0,.14-1,3.47,1.21,5.68a5.26,5.26,0,0,0,2.88,1.46,168.62,168.62,0,0,0,17.91-7.58c8.79-4.33,17.72-9.39,17.42-10s-7.91,3.17-18.31,6.26A115,115,0,0,1,410.4,310.72Z" transform="translate(-10.76 -24.7)"/><path class="cls-10" d="M429.35,311.72a4.4,4.4,0,0,1-2.65-8.25" transform="translate(-10.76 -24.7)"/><path class="cls-10" d="M446.51,302.7c-2.33.56-4.65-.16-5.64-1.69-1.37-2.11-.34-6,3.21-7.6" transform="translate(-10.76 -24.7)"/><path class="cls-31" d="M141.84,481.17a11.72,11.72,0,0,0,4.35,5.12c5,3.19,10.65,1,11.27.73a28.75,28.75,0,0,0-22.21,20.55A144.67,144.67,0,0,0,150,551.93l-3.82.8a97.73,97.73,0,0,1-18.74-45.07,51.06,51.06,0,0,1,14.37-26.49Z" transform="translate(-10.76 -24.7)"/><path class="cls-73" d="M239,411.23a63.79,63.79,0,0,0,31.57-36.43q1.31,21,2.6,42l-22.38,33.1A100.71,100.71,0,0,0,239,411.23Z" transform="translate(-10.76 -24.7)"/><path class="cls-73" d="M430.49,365.69a133.77,133.77,0,0,1,12,14,135.48,135.48,0,0,1,8.85,13.53,77.77,77.77,0,0,1,.59,34.81,39.55,39.55,0,0,0-23-23.49,30.9,30.9,0,0,0,6.47-12.29C438.86,378.93,431.92,367.87,430.49,365.69Z" transform="translate(-10.76 -24.7)"/><path class="cls-74" d="M231.87,398.35q-1.1,2.89,10.72,10.66a23.82,23.82,0,0,0,4.32-2.52,24.07,24.07,0,0,0,3.15-2.77l-9.49-1-3.52-6.11Q232.48,396.76,231.87,398.35Z" transform="translate(-10.76 -24.7)"/><path class="cls-74" d="M230.1,401.27l9,10.17a97.44,97.44,0,0,1,9.38,25.26,37.11,37.11,0,0,1-10.65-6.56c-2.71-2.39-10.49-9.24-9.13-16.28a8.71,8.71,0,0,1,.42-1.46,9.46,9.46,0,0,0,4.24,5.36,9.7,9.7,0,0,0,8,.57,23.17,23.17,0,0,1-10.18-11.92A20.6,20.6,0,0,1,230.1,401.27Z" transform="translate(-10.76 -24.7)"/><path class="cls-74" d="M429.21,388.81a16.85,16.85,0,0,1,3.75.49,16.17,16.17,0,0,1,2.88,1,28.85,28.85,0,0,1-7.25,14.36,35.38,35.38,0,0,1,18.64,14.81,21.71,21.71,0,0,1-13,4.34c-10-.05-16.06-7.34-16.91-8.39-6.41-3.45-7.77-5.28-7.49-6.32.65-2.41,10.05.36,15.4-4.44C429.41,401,429.77,394.42,429.21,388.81Z" transform="translate(-10.76 -24.7)"/><path class="cls-74" d="M429.81,274.12c3.54-1.07,7.4-2.06,11.55-2.92q3.76-.76,7.26-1.27l-.09,1.64a11.07,11.07,0,0,1-3.26,6.18,10.83,10.83,0,0,1-5,2.67c-.15-1.31-.29-2.61-.44-3.92a7.5,7.5,0,0,0-5.31-.18,7.31,7.31,0,0,0-3.48,2.61Z" transform="translate(-10.76 -24.7)"/><path class="cls-74" d="M377,292a266.87,266.87,0,0,0-34.55,12.28q-5.81,2.52-11.17,5.17a12,12,0,0,0,12.21,4.65l-2.07-4.59a9.93,9.93,0,0,1,11.76-4.06c.37,1.34.75,2.68,1.12,4Z" transform="translate(-10.76 -24.7)"/><path class="cls-75" d="M181.24,541.78a72.07,72.07,0,0,1,2.7-19c.21-.75.43-1.49.66-2.21a10.14,10.14,0,0,1-4.53-5.5c-1.22-3.91.35-8.46,4-11.43A31.21,31.21,0,0,0,175.83,514c-5.06,10.32-2.65,20.27-1.83,23.17Z" transform="translate(-10.76 -24.7)"/><path class="cls-75" d="M144.87,578a82.28,82.28,0,0,0,21.6-28.73,62,62,0,0,0,16.1,27c19.09,18.56,43.92,17.7,48.68,17.44A178.42,178.42,0,0,1,144.87,578Z" transform="translate(-10.76 -24.7)"/><path class="cls-75" d="M100.1,581.61,93.29,546.2c.14.73,1.71,8.61,8.6,11.41a13.31,13.31,0,0,0,6.84.79,46.87,46.87,0,0,0-8.63,23.21Z" transform="translate(-10.76 -24.7)"/><path class="cls-75" d="M493,522.16c-.07,10,1.53,26.24,11.92,41.07a61.48,61.48,0,0,0,5.28,6.53c-2.25,6.92-8.37,10.4-12.89,9.1-3.82-1.1-5.51-5.32-5.8-6.06A166.79,166.79,0,0,1,493,522.16Z" transform="translate(-10.76 -24.7)"/><circle class="cls-76" cx="502.32" cy="570.63" r="4.6" transform="translate(-257.93 673.23) rotate(-58.28)"/><path class="cls-75" d="M517.29,550.72c11.66,2.32,20.36,10.69,21.83,20.64,1.17,7.87-2.55,14.16-4,16.29a119.34,119.34,0,0,1,77.61,2.55c-17.5-9-31.14-16.58-40.34-21.87-11-6.31-18.32-10.85-30-14.13A94.31,94.31,0,0,0,517.29,550.72Z" transform="translate(-10.76 -24.7)"/><path class="cls-44" d="M532.24,547.24a156.63,156.63,0,0,1,80.37,42.62,155.45,155.45,0,0,0-13.1-13.35c-10.75-9.73-25.57-23.13-47.56-27.75A77.12,77.12,0,0,0,532.24,547.24Z" transform="translate(-10.76 -24.7)"/><path class="cls-44" d="M498.27,509.4a13.3,13.3,0,0,1,6.34.53c5.68,1.93,8,7.17,8.38,8.13-3.29-7.12-8.24-11.2-12-10.37A5.29,5.29,0,0,0,498.27,509.4Z" transform="translate(-10.76 -24.7)"/><path class="cls-44" d="M171.25,535.57a166.77,166.77,0,0,1,59.58,58.21c-10.4-9-21.15-18.79-32.09-29.53C188.82,554.5,179.67,544.9,171.25,535.57Z" transform="translate(-10.76 -24.7)"/><path class="cls-44" d="M218,527.22A25.46,25.46,0,0,0,211.89,508c-7.77-8.7-18.59-8.25-19.95-8.17a21.28,21.28,0,0,1,26,27.44Z" transform="translate(-10.76 -24.7)"/><path class="cls-44" d="M130.4,542,93.29,546.2l13.18,2.91Z" transform="translate(-10.76 -24.7)"/><path class="cls-44" d="M338.49,284.67q2.76,5.54,5.53,11.07-2.34,1-4.77,2.21c-1.17.57-2.32,1.14-3.44,1.71q-3.26-6.14-6.52-12.26Z" transform="translate(-10.76 -24.7)"/><path class="cls-44" d="M432.7,257.1l2.76,8.67-6.57,1.51c-1-2.83-2.06-5.65-3.08-8.48Z" transform="translate(-10.76 -24.7)"/><path class="cls-44" d="M341.72,309.46a7.17,7.17,0,0,1,6-4q7.1,19.81,14.2,39.64A6.19,6.19,0,0,1,360,346a6.61,6.61,0,0,1-4.54-.6Q348.61,327.41,341.72,309.46Z" transform="translate(-10.76 -24.7)"/><ellipse class="cls-77" cx="349" cy="327.75" rx="9.11" ry="8.04"/><path class="cls-58" d="M173.29,237.69a94.39,94.39,0,0,0,40,23.63c-2,3-4.16,6.08-6.58,9.25q-2.81,3.66-5.55,6.89a119.3,119.3,0,0,1-45.07-38.57Z" transform="translate(-10.76 -24.7)"/><path class="cls-58" d="M286.57,256.33l55.66,12.26-17.31,14.13-46.86-17Z" transform="translate(-10.76 -24.7)"/><path class="cls-58" d="M450.49,338.82q5.91,9.18,11.83,18.36.68,21.58,1.36,43.15l-4.94-40.51-10.74-19a3.39,3.39,0,0,0,2.49-2Z" transform="translate(-10.76 -24.7)"/><path class="cls-58" d="M468.77,406.56l15,.67,32.77,29.61-35.66-26Z" transform="translate(-10.76 -24.7)"/><path class="cls-58" d="M521.76,440.6,552.26,453c-5.62,0-15.89-1-25.26-7.85A39,39,0,0,1,521.76,440.6Z" transform="translate(-10.76 -24.7)"/><path class="cls-58" d="M365.88,359.46q4.72,8.57,9.46,17.13-6.13,15.48-12.26,31l5.79-30.81Q367.37,368.11,365.88,359.46Z" transform="translate(-10.76 -24.7)"/><path class="cls-58" d="M364.77,420.36l10.14,17q-3.14,39.22-4.07,39.17t.24-36.61Q367.93,430.13,364.77,420.36Z" transform="translate(-10.76 -24.7)"/><path class="cls-78" d="M637.29,155.82l3.49,6c1.34-1.81,2.67-3.63,4-5.44" transform="translate(-10.76 -24.7)"/><path class="cls-78" d="M653.72,156.83l3.91,7.1c1.28-2.16,2.56-4.31,3.83-6.47" transform="translate(-10.76 -24.7)"/><path class="cls-78" d="M669.56,158l3.27,6.45,4.15-6.09" transform="translate(-10.76 -24.7)"/><path class="cls-78" d="M634.84,257.4l1.2-7.26-6.51,1.38" transform="translate(-10.76 -24.7)"/><path class="cls-78" d="M626.22,247.43l1.65-6.16-6.23-.23" transform="translate(-10.76 -24.7)"/><path class="cls-78" d="M619.63,237.88l2.11-4.91-5.64-1.36" transform="translate(-10.76 -24.7)"/><path class="cls-79" d="M613.92,160.66l3.74,5.39c.72-2.22,1.43-4.45,2.14-6.67" transform="translate(-10.76 -24.7)"/><path class="cls-78" d="M625.63,158.35l3.77,4.28c.62-1.86,1.23-3.72,1.85-5.58" transform="translate(-10.76 -24.7)"/></g></svg>