<svg id="Layer_2" data-name="Layer 2" xmlns="http://www.w3.org/2000/svg" viewBox="0 0 279.5 555.88"><defs><style>.cls-1,.cls-2,.cls-3,.cls-4,.cls-5,.cls-6{stroke:#0b0b0b;stroke-miterlimit:10;}.cls-2,.cls-3{fill:#0b0b0b;}.cls-2,.cls-5{stroke-width:0.75px;}.cls-4{fill:none;}.cls-5{fill:#fff;}.cls-6{stroke-width:0.5px;}</style></defs><path class="cls-1" d="M9.71,560S220,509.81,187.91,347c0,0,12.82,64.1-21.79,60.25s4.72-94.23,25.11-84c0,0,40.27-1.28,29.37,67.31s-58.33,121.15-58.33,121.15c.87,0,113.54-84.69,67.31-208.33,0,0-31.41-51.93-85.58-16.67l-7.37-12.27s87.82-14,33.33-67.22c-.29.39-6.19-5.39-13.14-4.64-10.53,1.15-21.31,10.55-1.6,25.8.92,1.95-11.57-24.47,8.33-14.11,23.08,17.09,1.92,46.8-26.28,45.52,0,0-25-12.18-25.64-21.16,0,0,28.84,13.47,41.66.64,0,0-62.17,4.49-26.28-52.56,0,0-15.87,4-23.68,17.32-8.22,14-8.23,37.34-.68,43.58-41.11,1.48-55.28,76.07-2.51,55.89-16.27,4.85-18.23-23,1.87-30.89s32.7,19.23-3.2,51.92c-.64.69-53,9.11-48.72,76.28,4.54,71-16.67,86.54-16.67,86.54s30.89-35.68,25.64-76.92c.06.14-5.69-60.31,44.88-62.18,10.65,1,30.24,41.3-6.41,42.31,0,0-21.8-8.34,0-28.21-2.48-2.11-67.3,67.51-14.75,121.16,0,0-28.42-70.95,23.08-75.65,0,0,34-3.2-1.28,76.93C104.58,484.81,73.17,537.12,9.71,560Z" transform="translate(-9.54 -4.61)"/><path class="cls-1" d="M235.22,321.15s11.82-42.21-2.64-56.67c0,0,5.85,25.5-3,38.92" transform="translate(-9.54 -4.61)"/><path class="cls-1" d="M219.56,291.38s10.13-37.89-6.07-57.55c0,0,8.81,46.66-1.66,51.09" transform="translate(-9.54 -4.61)"/><path class="cls-1" d="M202.19,279.28s12.17-35.62-8.07-61.06c0,0,11,41.13-7.79,56.56" transform="translate(-9.54 -4.61)"/><path class="cls-2" d="M220.14,465.16s62.46-81.83,28.63-140c0,0,5.21-32.28-.58-45.2,0,0,18.8,14.27,20.53,42.31,0,0,8.77,26.89,19.28,25.16,0,0-7.13,7.52-27.08-32.39l-2.32,9S290.12,372.63,220.14,465.16Z" transform="translate(-9.54 -4.61)"/><path class="cls-3" d="M54.75,291.38s2.89,25.44,31.52,27.46c0,0-40.2,17.06-42.22,50.32,0,0,3.47-41.06,19.37-50.89,0,0-8.38,1.15-10.41-4.63,0,0-11.85,12.14-13,28.91s-7.23,31.23-10.12,41.93c0,0,4.92-29.2,1.45-35S33.93,310.17,54.75,291.38Z" transform="translate(-9.54 -4.61)"/><path class="cls-2" d="M43.47,298.6s-11,9-15.9,28.63c0,0-1.16-12.15,2.31-17.93,0,0-9.25,5.76-12.43,11.85,0,0,4.33-5.78,8.38-16.76,0,0-5.78,4.33-8.38,3.18,0,0,10.69-8.39,13-17.35a14.35,14.35,0,0,1-13,0s10.41-1.16,12.43-13.59-7.81-10.12-7.81-10.12.87-3.47,4.05-12.44c0,0,5.49-12.43.29-11.27s-4.34,2.6-4.34,2.6,12.73-32.68,15-30.94c0,0-2.89-5.34-5.21-.07,0,0,3.47-8.32,13.3-18.15,0,0,.87-5.78-4-3.76s-9.81,8.1-9.81,8.1,2.12-8.1,13.91-21.69,1.1-18.79-4.39-12.43c0,0-.58-8.1,11.56-17.35,0,0,0-25.16-28.91-51.76l2.6-17.64s7.81-5.78,11.86-2.6c0,0-9,.87-8.68,4s-2.6,15-2.6,15S62,129.73,60,148A22.69,22.69,0,0,0,60,130.6s15.24,42.57-.38,56.13c0,0-1.59-23.45-9.83,0A34.64,34.64,0,0,1,45.2,215.9s1.26-9.54-3.13-.86-7.56,20.24-5.54,21.1,5.78,1.45,11.57-7.22-15,23.13-13.59,27.47,5.78,12.53,3.18,22.89,1.15,6-7.81,26C29.88,305.25,40.07,297.2,43.47,298.6Z" transform="translate(-9.54 -4.61)"/><path class="cls-3" d="M54.6,233s-1.3,15.33,2,15,17.49-.58,22,2.17c0,0-27.18,5.49-22.7,31.52,0,0-3.9-5.64-5.92-.73s-7.67,12.73-12.44,12c0,0,13-15.47,7.81-27.32S42.75,248.29,54.6,233Z" transform="translate(-9.54 -4.61)"/><path class="cls-2" d="M91,243.37s-6.65,1-6.94-.57c0,0-9.5-8.85-17.4-1.88,0,0,6.12-16.63-6.46-18.65,0,0,14.17-17.35,5.78-21.4,0,0-3-1.16-5.78,5.93,0,0,.87-13.74,7.09-22.56s2-36.14,2-36.14,8,22.55,6.29,32.82c0,0,.79-2.46-2.82-3.91,0,0-3.62,14.46.29,14.46a40.84,40.84,0,0,1,10.7-11.71S73.25,199,81.64,217.35c0,0-7.52-6.36-12-.29,0,0-3.91,4.92,2.6,7.37s5.06-4,5.06-4,2,10.41,9.54,16.62c0,0-7.51-3.61-6.21-1.3S91,243.37,91,243.37Z" transform="translate(-9.54 -4.61)"/><path class="cls-3" d="M36.1,93s-1.85-1.2-2.61,4c0,0-4-22.7,16.78-20.24,0,0,7.8,1.59,9.25,8.67,0,0-13-11.13-20.68-.14,0,0-1.59,10.84,9.26,7.08,0,0,.72-5.35-3.47-1.59,0,0-4.39-4.77,4-5.92s17.5,8.67,15,15.75c0,0-7.37-11-11.42-3.9C52.29,96.77,42,106.6,36.1,93Z" transform="translate(-9.54 -4.61)"/><path class="cls-3" d="M29.73,75.08h3.45s1.33-4.77,7.69-2.74c0,0-7.42-28.34,1.2-38.89s9.64-11.28,9.64-11.28,2-8,4.92-8.1,0,3,0,3,4.77-2.31,2.74-6.36-6.65,1.15-6.65,1.15-1.88.73-2.17,8.39L38.12,33.88s-5.88,8.43-.58,33.83c0,0,.29,4.77-5.93-4.48,0,0-1.3-2.06-1.88,12.92" transform="translate(-9.54 -4.61)"/><path class="cls-3" d="M52.14,33.35s-5.06,6.22-8.39,7.52-5.06,19.23,0,30.22c0,0,4.77,3.61,8.39,0,0,0-2.75-4.92.86-12,0,0,4.63,2.89,3.91,14.31L73,94.51s2.9-9.83,0-19.52l-5.49-8.53s0-6.79-3.2-10-4.75-7.08-10-10.26C54.3,46.22,47.65,40.87,52.14,33.35Z" transform="translate(-9.54 -4.61)"/><path class="cls-3" d="M58.36,32.43c-1.62,2.17-1,12.4,8.34,20.1,3.52,2.89,2.68,12.66,7.4,16.34,3.6,2.8,7.55,30.77,4.5,34.41,0,0,2.6,2.45,4.92-1.74,0,0,0,3.18,4,5.93s7.8,6.8,5.78,15.61c0,0,4.05-14.31-2.31-17.35,0,0-6.65-5.2-4.77-9.1,0,0,7.8.14,6.07-7.38-.89-9-7.26-15-9.69-17.64,0,0,11,18.51,5.21,19.67s-8.1-12.08-8.1-12.08-2.17-6-.87-11.2,3-6.8-2.17-9.4c0,0,2.77,4-1.08,5.42s-1.4-9.32-10.19-17.71C62.57,43.57,58.86,37.78,58.36,32.43Z" transform="translate(-9.54 -4.61)"/><path class="cls-4" d="M47.37,58.6" transform="translate(-9.54 -4.61)"/><path class="cls-3" d="M84.1,65.69A49.7,49.7,0,0,0,104.77,89.4c15.33,8.82,17.06,16.77,17.06,16.77S123,99.66,113.3,90c0,0-1.44-4.78,7.81,1.59,0,0-3.09-5.67-18.12-9.69C103,81.88,88.43,75.81,84.1,65.69Z" transform="translate(-9.54 -4.61)"/><path class="cls-3" d="M120.24,76.15s.15,6.6,19.09,16.57c0,0,3.18-3.22,10.12,1.79a13.9,13.9,0,0,0-9.55-7.71s-.77-3.47,4.1-2.17C144,84.63,129.78,82.43,120.24,76.15Z" transform="translate(-9.54 -4.61)"/><path class="cls-3" d="M54,30s4.49-15.52,10.7-20.77c0,0,3.91,6.16,7.38,4.28S73.83,5,59.23,5.83c0,0,17.2-5.35,24.87,13,0,0-3.77-4.19-8-2.6,0,0-1.93,1.27,8.53,6.51,2,1,7.09,5.2,10.56,12.86s26.89,42,60.43,41c0,0-8.38,3.08-5.35,4.24,0,0,13.88,10.26,18.94,9.11,0,0-8.67-.15-5.92,2.45,0,0,9.83,4,13.87,11.86s7.81,14.46,14.9,18.22,11.27,8.38,13.88,13.73c0,0-7.81-9.25-8.82-3.9a17.08,17.08,0,0,1,8.82,12s5.06.14,14.31,11.56c0,0,17.49,7.09,21.11,13.16,0,0,27.18,11.28,6.36,25.59,0,0,17.2-12-5.78-23.71,0,0-6.65-9.11-22.56-13.74,0,0-2.17-6.65-14.6-11.42,0,0,2-4.19-7.52-11.56,0,0-4.91-6.94,2.75-4.05-5.34-3-16-9.8-17.78-13-3.39-6-13.45-23.11-19.38-23.71,0,0-3.18-1.45-.29-3.76L148.43,81s-1.59-1,2-3.25c0,0-32-.51-55.84-37.81,0,0-2.57-3.61-2.57,1.16,0,0,17.78,22.55,18.22,31.37,0,0-4.49-14.49-21.4-29.8a18.39,18.39,0,0,1-5.79-11.4s2.46,4.29,5.35,2.07c0,0,1.45-4.53-5.78-5.54,0,0-.29-.73-2,1.59,0,0-.29-7.81-5.79-6.8s-6.36,5.06-5.92,7.81-.29.72-.29.72S65.3,23.9,69.2,20C69.2,20,59.52,18.55,54,30Z" transform="translate(-9.54 -4.61)"/><path class="cls-2" d="M54,104.29s17.93.87,25.52,22.55c0,0-7.81-9.47-6.72-3.76s21,20,20.6,25c0,0-.22-19.09,3.69-26.9,0,0,4.55-12.08,0-21.32,0,0,6,8.6,2,23.2s.36,21.11.36,21.11-1.08-14.53,6.94-24.29c0,0-8.67,17.79,0,31.67s22.77,5.85,22.77,5.85,10.63-8.24,0-17.35c0,0-8-3.25-6.28,9.11,0,0-12.28-9.11-1-16.7,0,0,.83-1.73,7.12-1.52a17.45,17.45,0,0,0-11.93-5.42s25.81-7.37,36.22,31.23a26,26,0,0,0,9.11,18c9.1,8,0,1.09,0,1.09S152,170.94,147.64,153.3c0,0-2.17,21-28.41,25.34,0,0-26.68,12-28.19,29.53,0,0-5.64-20.6,39.47-36l-3.26-4.77s-11.27,9.11-27.76-3.47a33,33,0,0,1-2.6,16.91,26.27,26.27,0,0,0-.22-17.35s-3.25-5-7.37,2c0,0,5.21-15-4.34-16,0,0-3.47,2.6-.86,21.47,0,0-5.95-28.2-17.4-41,0,0,7.42,11.28,15.88,13.45,0,0,8.89.21-10-14.1,0,0-11.79-6.51-12.73-17.35,0,0,4.23,12.63,9.48,8.89C69.35,120.77,72.1,113.18,54,104.29Z" transform="translate(-9.54 -4.61)"/><path class="cls-2" d="M127.47,96.27s17.13,7.59,20.39,20.6,2.6,18,9.54,24.29c0,0-11-18.22-2.58-25.59a10.67,10.67,0,0,1,7.13,9.32c.87,7.59,4.34,13,14.32,20.39,0,0-7.52-5-9.84-21.26,0,0,.73-9.75,6.8-3.25,0,0-.43-11.29-18.41-24.5,0,0,11.9,13.87,6.7,14.53,0,0-3.86,3-6.7-3.69,0,0-3.06-11.5-13.25-11.71,0,0,11.52,5,9.1,14.09C150.67,109.49,136.64,96.59,127.47,96.27Z" transform="translate(-9.54 -4.61)"/><path class="cls-5" d="M128.55,339.59s9.11,6.29,8.25,16.05c0,0,28.62-59.42,72.43-50.31C209.23,305.33,171.43,263.56,128.55,339.59Z" transform="translate(-9.54 -4.61)"/><path class="cls-1" d="M147.33,235.93c1.7.58-9.53-4.39-12.44-12.48a21.26,21.26,0,0,1,.71-16.29c6.46-12.74,31.26-18.07,47.87-9,15.45,8.43,22.75,23.88,24.58,28,0,0-1.87-20.21-25.72-35.7C164,178.58,117.72,189,129.77,223.4,131.2,227.48,135.18,231.84,147.33,235.93Z" transform="translate(-9.54 -4.61)"/><path class="cls-5" d="M140.05,402.48s7.15,24.94,20.38,23.64c0,0-21,38.6-33.18,44.89C127.25,471,147.64,430,140.05,402.48Z" transform="translate(-9.54 -4.61)"/><path class="cls-1" d="M129.35,218.77h-4.14s-1.5-8,.67-13.73l5.06,1.15,2.46-5.64-5.6-2.66s1.84-6.52,8.2-9.16c0,0,3.7,1.85,3.51,3.58s4.49-1.59,4.49-1.59l-1.78-5s5.64-3.57,10.12-2.56l1.88,4.92,4.62-.14v-5.5s4.77-2,11.86,0v6.25l4.05,1.41,2.31-5.49a17.28,17.28,0,0,1,8.67,4.92L184,193.33S133,178.29,129.35,218.77Z" transform="translate(-9.54 -4.61)"/><path class="cls-6" d="M191.08,178s0,6.22-5.35,5.64-12.14-14.6,2.68-16c0,0-8.6-6.36-8.17-13.59,0,0,8.56,21.84,42.45,23.57,0,0,3.82-1.16-5.43-3.32,0,0,13.29-.73,19.94,1,0,0-.28-1.88-6.07-3a25,25,0,0,1,16.48,5.93s13.23,11.71-6.9,12.72c0,0,16-3.9,1.84-12,2.63,1.19,1.58-1.56-15.61.72l-4.25.87s4.68,2.16,5.41,5.28c0,0-6.51-5.54-13.59-4.18,0,0,3.47,3.67,2.75,6.56a17.86,17.86,0,0,0-11.44-7.66s2.59,4.19,0,7.66c0,0-1.87-6.32-6.35-6.56,0,0-11.13,1.86,11.42,18.6,9-3.32,18.5-4.08,28.48-2.93,0,0,15.62,9.26,11.57,32.82,0,0-.58-21.68-8.82-22.7,0,0-6.79-.86,2.46,16.77a30.71,30.71,0,0,1,4,22.13,56.47,56.47,0,0,0-15-32.54s-6.07-.14-4.48,6.08A71,71,0,0,1,245,272.72s-2.89-35-27-57.39c0,0-19.11-19.57-24.15-25.31-4.26-4.85-2.12-9.86,3.9-11.42a10.12,10.12,0,0,0-8.24-4.62c-5.49,0-3.76,4.62-3.76,4.62S186.17,181.06,191.08,178Z" transform="translate(-9.54 -4.61)"/><path class="cls-6" d="M177.49,131s5.85,13.24,17.21,14.24c0,0,10.08,5.56,13.35,10.77,0,0-2.67-2.17-2.23,0s1.59,3.18,6,3c0,0-.65,3.91-8.17,2.9,0,0,8.53,7.66,27.91,7.8,0,0-24,4.77-38.9-11.71,0,0,4.63,2.17,8.53.87,0,0-9.68-4.48-9.54-9a12.4,12.4,0,0,0,9.11,4s2.75-1.15-7.52-6.36C193.25,147.66,179.66,140.58,177.49,131Z" transform="translate(-9.54 -4.61)"/></svg>